<svg width="389" height="194" viewBox="0 0 389 194" fill="none" xmlns="http://www.w3.org/2000/svg">
<g opacity="0.8">
<path opacity="0.8" d="M197.754 157.017L262.155 179.495L261.955 179.837L197.555 157.359L197.754 157.017Z" fill="white"/>
<path opacity="0.8" d="M388.666 41.1671L359.861 61.4817L360.317 61.8682L388.666 41.8847V41.1671Z" fill="white"/>
<path opacity="0.8" d="M388.663 83.058L360.314 61.4958L359.844 61.8602L388.663 83.7756V83.058Z" fill="white"/>
<path opacity="0.8" d="M128.972 137.194L197.744 157.001L197.573 157.354L128.801 137.547L128.972 137.194Z" fill="white"/>
<path opacity="0.8" d="M129.026 137.112L128.745 137.643L261.919 179.931L262.2 179.4L129.026 137.112Z" fill="white"/>
<path opacity="0.8" d="M388.666 62.2154L360.09 61.4315L360.075 61.9063L388.666 62.6902V62.2154Z" fill="white"/>
<path opacity="0.8" d="M128.969 137.204L128.767 137.545L194.832 161.129L195.035 160.788L128.969 137.204Z" fill="white"/>
<path opacity="0.8" d="M197.526 157.109L194.809 160.889L195.033 160.986L197.75 157.205L197.526 157.109Z" fill="white"/>
<path opacity="0.8" d="M195.022 160.78L262.142 179.493L261.971 179.847L194.865 161.133L195.022 160.78Z" fill="white"/>
<path opacity="0.8" d="M128.969 137.204L128.767 137.545L194.832 161.129L195.035 160.788L128.969 137.204Z" fill="white"/>
<path opacity="0.8" d="M197.526 157.109L194.809 160.889L195.033 160.986L197.75 157.205L197.526 157.109Z" fill="white"/>
<path opacity="0.8" d="M195.022 160.78L262.142 179.493L261.971 179.847L194.865 161.133L195.022 160.78Z" fill="white"/>
<path opacity="0.8" d="M360.161 61.5559L387.741 73.0822L387.585 73.3141L360.005 61.7878L360.161 61.5559Z" fill="white"/>
<path opacity="0.8" d="M216.298 35.4115L216.127 35.9814L360.029 61.9679L360.2 61.398L216.298 35.4115Z" fill="white"/>
<path opacity="0.8" d="M255.206 23.5071L255.349 23.7831L216.236 35.8284L216.108 35.5634L255.206 23.5071Z" fill="white"/>
<path opacity="0.8" d="M255.426 23.3823L255.104 23.8994L387.483 73.4545L387.805 72.9374L255.426 23.3823Z" fill="white"/>
<path opacity="0.8" d="M255.426 23.4126L360.221 61.4474L359.951 61.9L255.156 23.8653L255.426 23.4126Z" fill="white"/>
<path opacity="0.8" d="M255.012 23.5599L255.567 23.7255L218.362 99.4418L217.807 99.2762L255.012 23.5599Z" fill="white"/>
<path opacity="0.8" d="M216.396 35.6842L215.869 35.694L217.847 99.3576L218.374 99.3477L216.396 35.6842Z" fill="white"/>
<path opacity="0.8" d="M217.99 99.3306L194.5 160.859L195.005 160.975L218.495 99.4465L217.99 99.3306Z" fill="white"/>
<path opacity="0.8" d="M217.99 99.3306L194.5 160.859L195.005 160.975L218.495 99.4465L217.99 99.3306Z" fill="white"/>
<path opacity="0.8" d="M217.93 99.1523L218.215 99.5608L129.025 137.573L128.74 137.176L217.93 99.1523Z" fill="white"/>
<path opacity="0.8" d="M217.834 99.3068L218.332 99.4061L197.9 157.237L197.416 157.137L217.834 99.3068Z" fill="white"/>
<path opacity="0.8" d="M218.366 99.2342L217.79 99.4241L261.775 179.735L262.352 179.546L218.366 99.2342Z" fill="white"/>
<path opacity="0.8" d="M359.962 61.4258L217.94 99.0651L218.184 99.6188L360.206 61.9795L359.962 61.4258Z" fill="white"/>
<path opacity="0.8" d="M218.188 99.1296L322.001 127.592L321.787 128.045L217.975 99.5823L218.188 99.1296Z" fill="white"/>
<path opacity="0.8" d="M255.622 23.5144L322.23 127.693L321.561 127.958L254.939 23.7683L255.622 23.5144Z" fill="white"/>
<path opacity="0.8" d="M387.455 73.0562L387.867 73.3542L322.1 127.972L321.687 127.674L387.455 73.0562Z" fill="white"/>
<path opacity="0.8" d="M321.789 127.562L322.016 128.081L195.052 161.224L194.838 160.705L321.789 127.562Z" fill="white"/>
<path opacity="0.8" d="M321.789 127.562L322.016 128.081L195.052 161.224L194.838 160.705L321.789 127.562Z" fill="white"/>
<path opacity="0.8" d="M388.665 128.467L321.901 127.562L321.887 128.081L388.665 128.997V128.467Z" fill="white"/>
<path opacity="0.8" d="M321.791 127.565L197.55 156.926L197.749 157.433L321.99 128.072L321.791 127.565Z" fill="white"/>
<path opacity="0.8" d="M388.665 145.973L322.029 127.547L321.772 128.099L388.665 146.603V145.973Z" fill="white"/>
<path opacity="0.8" d="M321.687 127.679L322.1 127.955L262.255 179.812L261.857 179.525L321.687 127.679Z" fill="white"/>
<path opacity="0.8" d="M359.836 61.5785L360.334 61.7551L322.147 127.91L321.648 127.734L359.836 61.5785Z" fill="white"/>
<path opacity="0.8" d="M255.195 23.4345L345.993 0.955688L346.178 1.37523L255.365 23.854L255.195 23.4345Z" fill="white"/>
<path opacity="0.8" d="M345.966 0.902344L346.208 1.43229L216.296 35.9562L216.054 35.4262L345.966 0.902344Z" fill="white"/>
<path opacity="0.8" d="M346.348 1.06458L387.925 73.1041L387.383 73.2917L345.821 1.25226L346.348 1.06458Z" fill="white"/>
<path opacity="0.8" d="M388.664 23.0851L346.29 0.92688L345.877 1.40162L388.664 23.7806V23.0851Z" fill="white"/>
<path opacity="0.8" d="M345.838 1.2026L346.337 1.13635L360.333 61.6386L359.835 61.7048L345.838 1.2026Z" fill="white"/>
<path opacity="0.8" d="M147.963 80.6619L218.159 99.1769L218.002 99.5413L147.807 81.0262L147.963 80.6619Z" fill="white"/>
<path opacity="0.8" d="M255.058 23.3931L147.716 80.6618L148.104 81.0984L255.446 23.8297L255.058 23.3931Z" fill="white"/>
<path opacity="0.8" d="M215.994 35.5397L216.35 35.8598L148.063 81.0049L147.707 80.6847L215.994 35.5397Z" fill="white"/>
<path opacity="0.8" d="M148.176 80.7374L195.234 160.859L194.65 161.057L147.592 80.9472L148.176 80.7374Z" fill="white"/>
<path opacity="0.8" d="M148.176 80.7374L195.234 160.859L194.65 161.057L147.592 80.9472L148.176 80.7374Z" fill="white"/>
<path opacity="0.8" d="M147.649 80.7903L148.118 80.8897L129.11 137.428L128.64 137.329L147.649 80.7903Z" fill="white"/>
<path opacity="0.8" d="M148.144 80.7383L147.597 80.9525L197.372 157.293L197.919 157.078L148.144 80.7383Z" fill="white"/>
<path opacity="0.8" d="M2.17603 172.917L63.1595 155.771Z" fill="white"/>
<path opacity="0.8" d="M128.782 137.134L2.05688 172.627L2.2939 173.136L129.019 137.643L128.782 137.134Z" fill="white"/>
<path opacity="0.8" d="M322.122 127.742L321.677 127.981L372.555 184.998L373 184.759L322.122 127.742Z" fill="white"/>
<path opacity="0.8" d="M262.07 179.428L372.789 184.595L372.76 185.081L262.042 179.914L262.07 179.428Z" fill="white"/>
<path opacity="0.8" d="M63.2876 185.677L2.17603 172.915Z" fill="white"/>
<path opacity="0.8" d="M2.23285 172.695L2.08838 173.111L90.9153 191.669L91.0598 191.253L2.23285 172.695Z" fill="white"/>
<path opacity="0.8" d="M147.553 80.7583L90.6389 191.374L91.3531 191.595L148.267 80.9792L147.553 80.7583Z" fill="white"/>
<path opacity="0.8" d="M194.819 160.708L90.8823 191.242L91.1043 191.697L195.041 161.163L194.819 160.708Z" fill="white"/>
<path opacity="0.8" d="M194.819 160.708L90.8823 191.242L91.1043 191.697L195.041 161.163L194.819 160.708Z" fill="white"/>
<path opacity="0.8" d="M128.669 137.285L90.7681 191.367L91.2185 191.557L129.12 137.475L128.669 137.285Z" fill="white"/>
<path opacity="0.8" d="M197.543 156.949L197.785 157.413L91.1244 191.704L90.8823 191.241L197.543 156.949Z" fill="white"/>
<path opacity="0.8" d="M259.979 180.192C259.88 179.978 259.836 179.752 259.852 179.525C259.867 179.298 259.942 179.077 260.07 178.873C260.199 178.669 260.379 178.487 260.6 178.339C260.822 178.19 261.079 178.078 261.357 178.008C261.636 177.938 261.93 177.913 262.221 177.933C262.513 177.953 262.796 178.019 263.054 178.126C263.312 178.232 263.54 178.379 263.723 178.555C263.907 178.732 264.043 178.936 264.123 179.154C264.277 179.575 264.214 180.026 263.948 180.412C263.682 180.798 263.234 181.088 262.697 181.223C262.16 181.357 261.576 181.325 261.07 181.133C260.563 180.94 260.172 180.603 259.979 180.192Z" fill="white"/>
<path opacity="0.8" d="M195.576 157.699C195.422 157.278 195.484 156.827 195.75 156.441C196.016 156.055 196.465 155.765 197.002 155.63C197.539 155.496 198.122 155.528 198.629 155.72C199.136 155.913 199.527 156.25 199.719 156.661C199.89 157.09 199.836 157.554 199.57 157.953C199.304 158.351 198.846 158.653 198.296 158.792C197.748 158.924 197.155 158.883 196.646 158.679C196.137 158.474 195.753 158.122 195.576 157.699V157.699Z" fill="white"/>
<path opacity="0.8" d="M358.012 62.1899C357.883 61.8713 357.878 61.5301 357.999 61.2095C358.12 60.8888 358.36 60.6032 358.691 60.3886C359.021 60.174 359.425 60.0401 359.854 60.0039C360.282 59.9676 360.714 60.0306 361.096 60.1849C361.478 60.3392 361.793 60.5779 362 60.8707C362.207 61.1636 362.298 61.4975 362.26 61.8302C362.223 62.163 362.059 62.4796 361.789 62.7402C361.52 63.0007 361.157 63.1934 360.746 63.2939C360.473 63.3623 360.185 63.3879 359.899 63.3692C359.614 63.3506 359.335 63.2881 359.081 63.1853C358.827 63.0826 358.601 62.9417 358.418 62.7708C358.234 62.5999 358.096 62.4025 358.012 62.1899V62.1899Z" fill="white"/>
<path opacity="0.8" d="M358.012 62.1899C357.883 61.8713 357.878 61.5301 357.999 61.2095C358.12 60.8888 358.36 60.6032 358.691 60.3886C359.021 60.174 359.425 60.0401 359.854 60.0039C360.282 59.9676 360.714 60.0306 361.096 60.1849C361.478 60.3392 361.793 60.5779 362 60.8707C362.207 61.1636 362.298 61.4975 362.26 61.8302C362.223 62.163 362.059 62.4796 361.789 62.7402C361.52 63.0007 361.157 63.1934 360.746 63.2939C360.473 63.3623 360.185 63.3879 359.899 63.3692C359.614 63.3506 359.335 63.2881 359.081 63.1853C358.827 63.0826 358.601 62.9417 358.418 62.7708C358.234 62.5999 358.096 62.4025 358.012 62.1899V62.1899Z" fill="white"/>
<path opacity="0.8" d="M195.576 157.699C195.422 157.278 195.484 156.827 195.75 156.441C196.016 156.055 196.465 155.765 197.002 155.63C197.539 155.496 198.122 155.528 198.629 155.72C199.136 155.913 199.527 156.25 199.719 156.661C199.89 157.09 199.836 157.554 199.57 157.953C199.304 158.351 198.846 158.653 198.296 158.792C197.748 158.924 197.155 158.883 196.646 158.679C196.137 158.474 195.753 158.122 195.576 157.699V157.699Z" fill="white"/>
<path opacity="0.8" d="M126.803 137.895C126.674 137.576 126.669 137.235 126.79 136.915C126.911 136.594 127.151 136.308 127.482 136.094C127.812 135.879 128.216 135.745 128.645 135.709C129.073 135.673 129.505 135.736 129.887 135.89C130.269 136.044 130.584 136.283 130.791 136.576C130.998 136.869 131.089 137.203 131.051 137.535C131.014 137.868 130.85 138.185 130.58 138.445C130.311 138.706 129.948 138.898 129.537 138.999C129.264 139.067 128.976 139.093 128.69 139.074C128.405 139.056 128.126 138.993 127.872 138.89C127.618 138.788 127.392 138.647 127.209 138.476C127.025 138.305 126.887 138.108 126.803 137.895Z" fill="white"/>
<path opacity="0.8" d="M259.979 180.192C259.88 179.978 259.836 179.752 259.852 179.525C259.867 179.298 259.942 179.077 260.07 178.873C260.199 178.669 260.379 178.487 260.6 178.339C260.822 178.19 261.079 178.078 261.357 178.008C261.636 177.938 261.93 177.913 262.221 177.933C262.513 177.953 262.796 178.019 263.054 178.126C263.312 178.232 263.54 178.379 263.723 178.555C263.907 178.732 264.043 178.936 264.123 179.154C264.277 179.575 264.214 180.026 263.948 180.412C263.682 180.798 263.234 181.088 262.697 181.223C262.16 181.357 261.576 181.325 261.07 181.133C260.563 180.94 260.172 180.603 259.979 180.192Z" fill="white"/>
<path opacity="0.8" d="M126.803 137.895C126.674 137.576 126.669 137.235 126.79 136.915C126.911 136.594 127.151 136.308 127.482 136.094C127.812 135.879 128.216 135.745 128.645 135.709C129.073 135.673 129.505 135.736 129.887 135.89C130.269 136.044 130.584 136.283 130.791 136.576C130.998 136.869 131.089 137.203 131.051 137.535C131.014 137.868 130.85 138.185 130.58 138.445C130.311 138.706 129.948 138.898 129.537 138.999C129.264 139.067 128.976 139.093 128.69 139.074C128.405 139.056 128.126 138.993 127.872 138.89C127.618 138.788 127.392 138.647 127.209 138.476C127.025 138.305 126.887 138.108 126.803 137.895Z" fill="white"/>
<path opacity="0.8" d="M358.012 62.1899C357.883 61.8713 357.878 61.5301 357.999 61.2095C358.12 60.8888 358.36 60.6032 358.691 60.3886C359.021 60.174 359.425 60.0401 359.854 60.0039C360.282 59.9676 360.714 60.0306 361.096 60.1849C361.478 60.3392 361.793 60.5779 362 60.8707C362.207 61.1636 362.298 61.4975 362.26 61.8302C362.223 62.163 362.059 62.4796 361.789 62.7402C361.52 63.0007 361.157 63.1934 360.746 63.2939C360.473 63.3623 360.185 63.3879 359.899 63.3692C359.614 63.3506 359.335 63.2881 359.081 63.1853C358.827 63.0826 358.601 62.9417 358.418 62.7708C358.234 62.5999 358.096 62.4025 358.012 62.1899V62.1899Z" fill="white"/>
<path opacity="0.8" d="M126.803 137.895C126.674 137.576 126.669 137.235 126.79 136.915C126.911 136.594 127.151 136.308 127.482 136.094C127.812 135.879 128.216 135.745 128.645 135.709C129.073 135.673 129.505 135.736 129.887 135.89C130.269 136.044 130.584 136.283 130.791 136.576C130.998 136.869 131.089 137.203 131.051 137.535C131.014 137.868 130.85 138.185 130.58 138.445C130.311 138.706 129.948 138.898 129.537 138.999C129.264 139.067 128.976 139.093 128.69 139.074C128.405 139.056 128.126 138.993 127.872 138.89C127.618 138.788 127.392 138.647 127.209 138.476C127.025 138.305 126.887 138.108 126.803 137.895Z" fill="white"/>
<path opacity="0.8" d="M192.872 161.474C192.743 161.155 192.738 160.814 192.859 160.493C192.98 160.173 193.221 159.887 193.551 159.672C193.881 159.458 194.286 159.324 194.714 159.288C195.142 159.251 195.575 159.314 195.957 159.469C196.339 159.623 196.653 159.862 196.86 160.154C197.068 160.447 197.158 160.781 197.12 161.114C197.083 161.447 196.919 161.763 196.65 162.024C196.38 162.285 196.017 162.477 195.606 162.578C195.333 162.645 195.046 162.669 194.76 162.65C194.475 162.63 194.198 162.568 193.944 162.465C193.69 162.363 193.465 162.222 193.281 162.052C193.097 161.882 192.958 161.685 192.872 161.474V161.474Z" fill="white"/>
<path opacity="0.8" d="M195.576 157.699C195.422 157.278 195.484 156.827 195.75 156.441C196.016 156.055 196.465 155.765 197.002 155.63C197.539 155.496 198.122 155.528 198.629 155.72C199.136 155.913 199.527 156.25 199.719 156.661C199.89 157.09 199.836 157.554 199.57 157.953C199.304 158.351 198.846 158.653 198.296 158.792C197.748 158.924 197.155 158.883 196.646 158.679C196.137 158.474 195.753 158.122 195.576 157.699V157.699Z" fill="white"/>
<path opacity="0.8" d="M192.872 161.474C192.743 161.155 192.738 160.814 192.859 160.493C192.98 160.173 193.221 159.887 193.551 159.672C193.881 159.458 194.286 159.324 194.714 159.288C195.142 159.251 195.575 159.314 195.957 159.469C196.339 159.623 196.653 159.862 196.86 160.154C197.068 160.447 197.158 160.781 197.12 161.114C197.083 161.447 196.919 161.763 196.65 162.024C196.38 162.285 196.017 162.477 195.606 162.578C195.333 162.645 195.046 162.669 194.76 162.65C194.475 162.63 194.198 162.568 193.944 162.465C193.69 162.363 193.465 162.222 193.281 162.052C193.097 161.882 192.958 161.685 192.872 161.474V161.474Z" fill="white"/>
<path opacity="0.8" d="M259.979 180.192C259.88 179.978 259.836 179.752 259.852 179.525C259.867 179.298 259.942 179.077 260.07 178.873C260.199 178.669 260.379 178.487 260.6 178.339C260.822 178.19 261.079 178.078 261.357 178.008C261.636 177.938 261.93 177.913 262.221 177.933C262.513 177.953 262.796 178.019 263.054 178.126C263.312 178.232 263.54 178.379 263.723 178.555C263.907 178.732 264.043 178.936 264.123 179.154C264.277 179.575 264.214 180.026 263.948 180.412C263.682 180.798 263.234 181.088 262.697 181.223C262.16 181.357 261.576 181.325 261.07 181.133C260.563 180.94 260.172 180.603 259.979 180.192Z" fill="white"/>
<path opacity="0.8" d="M192.872 161.474C192.743 161.155 192.738 160.814 192.859 160.493C192.98 160.173 193.221 159.887 193.551 159.672C193.881 159.458 194.286 159.324 194.714 159.288C195.142 159.251 195.575 159.314 195.957 159.469C196.339 159.623 196.653 159.862 196.86 160.154C197.068 160.447 197.158 160.781 197.12 161.114C197.083 161.447 196.919 161.763 196.65 162.024C196.38 162.285 196.017 162.477 195.606 162.578C195.333 162.645 195.046 162.669 194.76 162.65C194.475 162.63 194.198 162.568 193.944 162.465C193.69 162.363 193.465 162.222 193.281 162.052C193.097 161.882 192.958 161.685 192.872 161.474V161.474Z" fill="white"/>
<path opacity="0.8" d="M126.803 137.895C126.674 137.576 126.669 137.235 126.79 136.915C126.911 136.594 127.151 136.308 127.482 136.094C127.812 135.879 128.216 135.745 128.645 135.709C129.073 135.673 129.505 135.736 129.887 135.89C130.269 136.044 130.584 136.283 130.791 136.576C130.998 136.869 131.089 137.203 131.051 137.535C131.014 137.868 130.85 138.185 130.58 138.445C130.311 138.706 129.948 138.898 129.537 138.999C129.264 139.067 128.976 139.093 128.69 139.074C128.405 139.056 128.126 138.993 127.872 138.89C127.618 138.788 127.392 138.647 127.209 138.476C127.025 138.305 126.887 138.108 126.803 137.895Z" fill="white"/>
<path opacity="0.8" d="M192.872 161.474C192.743 161.155 192.738 160.814 192.859 160.493C192.98 160.173 193.221 159.887 193.551 159.672C193.881 159.458 194.286 159.324 194.714 159.288C195.142 159.251 195.575 159.314 195.957 159.469C196.339 159.623 196.653 159.862 196.86 160.154C197.068 160.447 197.158 160.781 197.12 161.114C197.083 161.447 196.919 161.763 196.65 162.024C196.38 162.285 196.017 162.477 195.606 162.578C195.333 162.645 195.046 162.669 194.76 162.65C194.475 162.63 194.198 162.568 193.944 162.465C193.69 162.363 193.465 162.222 193.281 162.052C193.097 161.882 192.958 161.685 192.872 161.474V161.474Z" fill="white"/>
<path opacity="0.8" d="M195.576 157.699C195.422 157.278 195.484 156.827 195.75 156.441C196.016 156.055 196.465 155.765 197.002 155.63C197.539 155.496 198.122 155.528 198.629 155.72C199.136 155.913 199.527 156.25 199.719 156.661C199.89 157.09 199.836 157.554 199.57 157.953C199.304 158.351 198.846 158.653 198.296 158.792C197.748 158.924 197.155 158.883 196.646 158.679C196.137 158.474 195.753 158.122 195.576 157.699V157.699Z" fill="white"/>
<path opacity="0.8" d="M192.872 161.474C192.743 161.155 192.738 160.814 192.859 160.493C192.98 160.173 193.221 159.887 193.551 159.672C193.881 159.458 194.286 159.324 194.714 159.288C195.142 159.251 195.575 159.314 195.957 159.469C196.339 159.623 196.653 159.862 196.86 160.154C197.068 160.447 197.158 160.781 197.12 161.114C197.083 161.447 196.919 161.763 196.65 162.024C196.38 162.285 196.017 162.477 195.606 162.578C195.333 162.645 195.046 162.669 194.76 162.65C194.475 162.63 194.198 162.568 193.944 162.465C193.69 162.363 193.465 162.222 193.281 162.052C193.097 161.882 192.958 161.685 192.872 161.474V161.474Z" fill="white"/>
<path opacity="0.8" d="M259.979 180.192C259.88 179.978 259.836 179.752 259.852 179.525C259.867 179.298 259.942 179.077 260.07 178.873C260.199 178.669 260.379 178.487 260.6 178.339C260.822 178.19 261.079 178.078 261.357 178.008C261.636 177.938 261.93 177.913 262.221 177.933C262.513 177.953 262.796 178.019 263.054 178.126C263.312 178.232 263.54 178.379 263.723 178.555C263.907 178.732 264.043 178.936 264.123 179.154C264.277 179.575 264.214 180.026 263.948 180.412C263.682 180.798 263.234 181.088 262.697 181.223C262.16 181.357 261.576 181.325 261.07 181.133C260.563 180.94 260.172 180.603 259.979 180.192Z" fill="white"/>
<path opacity="0.8" d="M192.872 161.474C192.743 161.155 192.738 160.814 192.859 160.493C192.98 160.173 193.221 159.887 193.551 159.672C193.881 159.458 194.286 159.324 194.714 159.288C195.142 159.251 195.575 159.314 195.957 159.469C196.339 159.623 196.653 159.862 196.86 160.154C197.068 160.447 197.158 160.781 197.12 161.114C197.083 161.447 196.919 161.763 196.65 162.024C196.38 162.285 196.017 162.477 195.606 162.578C195.333 162.645 195.046 162.669 194.76 162.65C194.475 162.63 194.198 162.568 193.944 162.465C193.69 162.363 193.465 162.222 193.281 162.052C193.097 161.882 192.958 161.685 192.872 161.474V161.474Z" fill="white"/>
<path opacity="0.8" d="M358.012 62.1899C357.883 61.8713 357.878 61.5301 357.999 61.2095C358.12 60.8888 358.36 60.6032 358.691 60.3886C359.021 60.174 359.425 60.0401 359.854 60.0039C360.282 59.9676 360.714 60.0306 361.096 60.1849C361.478 60.3392 361.793 60.5779 362 60.8707C362.207 61.1636 362.298 61.4975 362.26 61.8302C362.223 62.163 362.059 62.4796 361.789 62.7402C361.52 63.0007 361.157 63.1934 360.746 63.2939C360.473 63.3623 360.185 63.3879 359.899 63.3692C359.614 63.3506 359.335 63.2881 359.081 63.1853C358.827 63.0826 358.601 62.9417 358.418 62.7708C358.234 62.5999 358.096 62.4025 358.012 62.1899V62.1899Z" fill="white"/>
<path opacity="0.8" d="M358.012 62.1899C357.883 61.8713 357.878 61.5301 357.999 61.2095C358.12 60.8888 358.36 60.6032 358.691 60.3886C359.021 60.174 359.425 60.0401 359.854 60.0039C360.282 59.9676 360.714 60.0306 361.096 60.1849C361.478 60.3392 361.793 60.5779 362 60.8707C362.207 61.1636 362.298 61.4975 362.26 61.8302C362.223 62.163 362.059 62.4796 361.789 62.7402C361.52 63.0007 361.157 63.1934 360.746 63.2939C360.473 63.3623 360.185 63.3879 359.899 63.3692C359.614 63.3506 359.335 63.2881 359.081 63.1853C358.827 63.0826 358.601 62.9417 358.418 62.7708C358.234 62.5999 358.096 62.4025 358.012 62.1899V62.1899Z" fill="white"/>
<path opacity="0.8" d="M214.085 36.211C213.956 35.8924 213.952 35.5512 214.072 35.2306C214.193 34.91 214.434 34.6243 214.764 34.4097C215.094 34.1951 215.499 34.0612 215.927 34.025C216.355 33.9887 216.788 34.0517 217.17 34.206C217.552 34.3603 217.866 34.599 218.074 34.8919C218.281 35.1847 218.371 35.5186 218.334 35.8514C218.296 36.1841 218.132 36.5008 217.863 36.7613C217.593 37.0218 217.23 37.2145 216.819 37.3151C216.268 37.447 215.672 37.405 215.16 37.1984C214.648 36.9917 214.262 36.6369 214.085 36.211V36.211Z" fill="white"/>
<path opacity="0.8" d="M214.085 36.211C213.956 35.8924 213.952 35.5512 214.072 35.2306C214.193 34.91 214.434 34.6243 214.764 34.4097C215.094 34.1951 215.499 34.0612 215.927 34.025C216.355 33.9887 216.788 34.0517 217.17 34.206C217.552 34.3603 217.866 34.599 218.074 34.8919C218.281 35.1847 218.371 35.5186 218.334 35.8514C218.296 36.1841 218.132 36.5008 217.863 36.7613C217.593 37.0218 217.23 37.2145 216.819 37.3151C216.268 37.447 215.672 37.405 215.16 37.1984C214.648 36.9917 214.262 36.6369 214.085 36.211V36.211Z" fill="white"/>
<path opacity="0.8" d="M253.219 24.1665C253.089 23.8479 253.085 23.5067 253.206 23.186C253.326 22.8654 253.567 22.5798 253.897 22.3652C254.227 22.1506 254.632 22.0167 255.06 21.9804C255.488 21.9442 255.921 22.0072 256.303 22.1615C256.685 22.3158 257 22.5544 257.207 22.8473C257.414 23.1402 257.504 23.4741 257.467 23.8068C257.429 24.1396 257.265 24.4562 256.996 24.7168C256.726 24.9773 256.363 25.17 255.952 25.2706C255.679 25.3374 255.392 25.3618 255.107 25.3425C254.822 25.3231 254.544 25.2604 254.29 25.1579C254.036 25.0553 253.811 24.915 253.627 24.7449C253.443 24.5748 253.304 24.3782 253.219 24.1665V24.1665Z" fill="white"/>
<path opacity="0.8" d="M253.219 24.1665C253.089 23.8479 253.085 23.5067 253.206 23.186C253.326 22.8654 253.567 22.5798 253.897 22.3652C254.227 22.1506 254.632 22.0167 255.06 21.9804C255.488 21.9442 255.921 22.0072 256.303 22.1615C256.685 22.3158 257 22.5544 257.207 22.8473C257.414 23.1402 257.504 23.4741 257.467 23.8068C257.429 24.1396 257.265 24.4562 256.996 24.7168C256.726 24.9773 256.363 25.17 255.952 25.2706C255.679 25.3374 255.392 25.3618 255.107 25.3425C254.822 25.3231 254.544 25.2604 254.29 25.1579C254.036 25.0553 253.811 24.915 253.627 24.7449C253.443 24.5748 253.304 24.3782 253.219 24.1665V24.1665Z" fill="white"/>
<path opacity="0.8" d="M358.012 62.1899C357.883 61.8713 357.878 61.5301 357.999 61.2095C358.12 60.8888 358.36 60.6032 358.691 60.3886C359.021 60.174 359.425 60.0401 359.854 60.0039C360.282 59.9676 360.714 60.0306 361.096 60.1849C361.478 60.3392 361.793 60.5779 362 60.8707C362.207 61.1636 362.298 61.4975 362.26 61.8302C362.223 62.163 362.059 62.4796 361.789 62.7402C361.52 63.0007 361.157 63.1934 360.746 63.2939C360.473 63.3623 360.185 63.3879 359.899 63.3692C359.614 63.3506 359.335 63.2881 359.081 63.1853C358.827 63.0826 358.601 62.9417 358.418 62.7708C358.234 62.5999 358.096 62.4025 358.012 62.1899V62.1899Z" fill="white"/>
<path opacity="0.8" d="M253.219 24.1665C253.089 23.8479 253.085 23.5067 253.206 23.186C253.326 22.8654 253.567 22.5798 253.897 22.3652C254.227 22.1506 254.632 22.0167 255.06 21.9804C255.488 21.9442 255.921 22.0072 256.303 22.1615C256.685 22.3158 257 22.5544 257.207 22.8473C257.414 23.1402 257.504 23.4741 257.467 23.8068C257.429 24.1396 257.265 24.4562 256.996 24.7168C256.726 24.9773 256.363 25.17 255.952 25.2706C255.679 25.3374 255.392 25.3618 255.107 25.3425C254.822 25.3231 254.544 25.2604 254.29 25.1579C254.036 25.0553 253.811 24.915 253.627 24.7449C253.443 24.5748 253.304 24.3782 253.219 24.1665V24.1665Z" fill="white"/>
<path opacity="0.8" d="M253.219 24.1665C253.089 23.8479 253.085 23.5067 253.206 23.186C253.326 22.8654 253.567 22.5798 253.897 22.3652C254.227 22.1506 254.632 22.0167 255.06 21.9804C255.488 21.9442 255.921 22.0072 256.303 22.1615C256.685 22.3158 257 22.5544 257.207 22.8473C257.414 23.1402 257.504 23.4741 257.467 23.8068C257.429 24.1396 257.265 24.4562 256.996 24.7168C256.726 24.9773 256.363 25.17 255.952 25.2706C255.679 25.3374 255.392 25.3618 255.107 25.3425C254.822 25.3231 254.544 25.2604 254.29 25.1579C254.036 25.0553 253.811 24.915 253.627 24.7449C253.443 24.5748 253.304 24.3782 253.219 24.1665V24.1665Z" fill="white"/>
<path opacity="0.8" d="M216.008 99.8684C215.879 99.5497 215.875 99.2085 215.995 98.8879C216.116 98.5673 216.357 98.2816 216.687 98.0671C217.017 97.8525 217.422 97.7186 217.85 97.6823C218.278 97.6461 218.711 97.7091 219.093 97.8634C219.475 98.0177 219.789 98.2563 219.996 98.5492C220.204 98.8421 220.294 99.176 220.257 99.5087C220.219 99.8415 220.055 100.158 219.786 100.419C219.516 100.679 219.153 100.872 218.742 100.972C218.469 101.041 218.181 101.066 217.896 101.048C217.61 101.029 217.332 100.967 217.077 100.864C216.823 100.761 216.597 100.62 216.414 100.449C216.23 100.278 216.093 100.081 216.008 99.8684V99.8684Z" fill="white"/>
<path opacity="0.8" d="M214.085 36.211C213.956 35.8924 213.952 35.5512 214.072 35.2306C214.193 34.91 214.434 34.6243 214.764 34.4097C215.094 34.1951 215.499 34.0612 215.927 34.025C216.355 33.9887 216.788 34.0517 217.17 34.206C217.552 34.3603 217.866 34.599 218.074 34.8919C218.281 35.1847 218.371 35.5186 218.334 35.8514C218.296 36.1841 218.132 36.5008 217.863 36.7613C217.593 37.0218 217.23 37.2145 216.819 37.3151C216.268 37.447 215.672 37.405 215.16 37.1984C214.648 36.9917 214.262 36.6369 214.085 36.211V36.211Z" fill="white"/>
<path opacity="0.8" d="M216.008 99.8684C215.879 99.5497 215.875 99.2085 215.995 98.8879C216.116 98.5673 216.357 98.2816 216.687 98.0671C217.017 97.8525 217.422 97.7186 217.85 97.6823C218.278 97.6461 218.711 97.7091 219.093 97.8634C219.475 98.0177 219.789 98.2563 219.996 98.5492C220.204 98.8421 220.294 99.176 220.257 99.5087C220.219 99.8415 220.055 100.158 219.786 100.419C219.516 100.679 219.153 100.872 218.742 100.972C218.469 101.041 218.181 101.066 217.896 101.048C217.61 101.029 217.332 100.967 217.077 100.864C216.823 100.761 216.597 100.62 216.414 100.449C216.23 100.278 216.093 100.081 216.008 99.8684V99.8684Z" fill="white"/>
<path opacity="0.8" d="M192.872 161.474C192.743 161.155 192.738 160.814 192.859 160.493C192.98 160.173 193.221 159.887 193.551 159.672C193.881 159.458 194.286 159.324 194.714 159.288C195.142 159.251 195.575 159.314 195.957 159.469C196.339 159.623 196.653 159.862 196.86 160.154C197.068 160.447 197.158 160.781 197.12 161.114C197.083 161.447 196.919 161.763 196.65 162.024C196.38 162.285 196.017 162.477 195.606 162.578C195.333 162.645 195.046 162.669 194.76 162.65C194.475 162.63 194.198 162.568 193.944 162.465C193.69 162.363 193.465 162.222 193.281 162.052C193.097 161.882 192.958 161.685 192.872 161.474V161.474Z" fill="white"/>
<path opacity="0.8" d="M216.008 99.8684C215.879 99.5497 215.875 99.2085 215.995 98.8879C216.116 98.5673 216.357 98.2816 216.687 98.0671C217.017 97.8525 217.422 97.7186 217.85 97.6823C218.278 97.6461 218.711 97.7091 219.093 97.8634C219.475 98.0177 219.789 98.2563 219.996 98.5492C220.204 98.8421 220.294 99.176 220.257 99.5087C220.219 99.8415 220.055 100.158 219.786 100.419C219.516 100.679 219.153 100.872 218.742 100.972C218.469 101.041 218.181 101.066 217.896 101.048C217.61 101.029 217.332 100.967 217.077 100.864C216.823 100.761 216.597 100.62 216.414 100.449C216.23 100.278 216.093 100.081 216.008 99.8684V99.8684Z" fill="white"/>
<path opacity="0.8" d="M192.872 161.474C192.743 161.155 192.738 160.814 192.859 160.493C192.98 160.173 193.221 159.887 193.551 159.672C193.881 159.458 194.286 159.324 194.714 159.288C195.142 159.251 195.575 159.314 195.957 159.469C196.339 159.623 196.653 159.862 196.86 160.154C197.068 160.447 197.158 160.781 197.12 161.114C197.083 161.447 196.919 161.763 196.65 162.024C196.38 162.285 196.017 162.477 195.606 162.578C195.333 162.645 195.046 162.669 194.76 162.65C194.475 162.63 194.198 162.568 193.944 162.465C193.69 162.363 193.465 162.222 193.281 162.052C193.097 161.882 192.958 161.685 192.872 161.474V161.474Z" fill="white"/>
<path opacity="0.8" d="M216.008 99.8684C215.879 99.5497 215.875 99.2085 215.995 98.8879C216.116 98.5673 216.357 98.2816 216.687 98.0671C217.017 97.8525 217.422 97.7186 217.85 97.6823C218.278 97.6461 218.711 97.7091 219.093 97.8634C219.475 98.0177 219.789 98.2563 219.996 98.5492C220.204 98.8421 220.294 99.176 220.257 99.5087C220.219 99.8415 220.055 100.158 219.786 100.419C219.516 100.679 219.153 100.872 218.742 100.972C218.469 101.041 218.181 101.066 217.896 101.048C217.61 101.029 217.332 100.967 217.077 100.864C216.823 100.761 216.597 100.62 216.414 100.449C216.23 100.278 216.093 100.081 216.008 99.8684V99.8684Z" fill="white"/>
<path opacity="0.8" d="M126.803 137.895C126.674 137.576 126.669 137.235 126.79 136.915C126.911 136.594 127.151 136.308 127.482 136.094C127.812 135.879 128.216 135.745 128.645 135.709C129.073 135.673 129.505 135.736 129.887 135.89C130.269 136.044 130.584 136.283 130.791 136.576C130.998 136.869 131.089 137.203 131.051 137.535C131.014 137.868 130.85 138.185 130.58 138.445C130.311 138.706 129.948 138.898 129.537 138.999C129.264 139.067 128.976 139.093 128.69 139.074C128.405 139.056 128.126 138.993 127.872 138.89C127.618 138.788 127.392 138.647 127.209 138.476C127.025 138.305 126.887 138.108 126.803 137.895Z" fill="white"/>
<path opacity="0.8" d="M216.008 99.8684C215.879 99.5497 215.875 99.2085 215.995 98.8879C216.116 98.5673 216.357 98.2816 216.687 98.0671C217.017 97.8525 217.422 97.7186 217.85 97.6823C218.278 97.6461 218.711 97.7091 219.093 97.8634C219.475 98.0177 219.789 98.2563 219.996 98.5492C220.204 98.8421 220.294 99.176 220.257 99.5087C220.219 99.8415 220.055 100.158 219.786 100.419C219.516 100.679 219.153 100.872 218.742 100.972C218.469 101.041 218.181 101.066 217.896 101.048C217.61 101.029 217.332 100.967 217.077 100.864C216.823 100.761 216.597 100.62 216.414 100.449C216.23 100.278 216.093 100.081 216.008 99.8684V99.8684Z" fill="white"/>
<path opacity="0.8" d="M195.576 157.699C195.422 157.278 195.484 156.827 195.75 156.441C196.016 156.055 196.465 155.765 197.002 155.63C197.539 155.496 198.122 155.528 198.629 155.72C199.136 155.913 199.527 156.25 199.719 156.661C199.89 157.09 199.836 157.554 199.57 157.953C199.304 158.351 198.846 158.653 198.296 158.792C197.748 158.924 197.155 158.883 196.646 158.679C196.137 158.474 195.753 158.122 195.576 157.699V157.699Z" fill="white"/>
<path opacity="0.8" d="M216.008 99.8684C215.879 99.5497 215.875 99.2085 215.995 98.8879C216.116 98.5673 216.357 98.2816 216.687 98.0671C217.017 97.8525 217.422 97.7186 217.85 97.6823C218.278 97.6461 218.711 97.7091 219.093 97.8634C219.475 98.0177 219.789 98.2563 219.996 98.5492C220.204 98.8421 220.294 99.176 220.257 99.5087C220.219 99.8415 220.055 100.158 219.786 100.419C219.516 100.679 219.153 100.872 218.742 100.972C218.469 101.041 218.181 101.066 217.896 101.048C217.61 101.029 217.332 100.967 217.077 100.864C216.823 100.761 216.597 100.62 216.414 100.449C216.23 100.278 216.093 100.081 216.008 99.8684V99.8684Z" fill="white"/>
<path opacity="0.8" d="M259.979 180.192C259.88 179.978 259.836 179.752 259.852 179.525C259.867 179.298 259.942 179.077 260.07 178.873C260.199 178.669 260.379 178.487 260.6 178.339C260.822 178.19 261.079 178.078 261.357 178.008C261.636 177.938 261.93 177.913 262.221 177.933C262.513 177.953 262.796 178.019 263.054 178.126C263.312 178.232 263.54 178.379 263.723 178.555C263.907 178.732 264.043 178.936 264.123 179.154C264.277 179.575 264.214 180.026 263.948 180.412C263.682 180.798 263.234 181.088 262.697 181.223C262.16 181.357 261.576 181.325 261.07 181.133C260.563 180.94 260.172 180.603 259.979 180.192Z" fill="white"/>
<path opacity="0.8" d="M216.008 99.8684C215.879 99.5497 215.875 99.2085 215.995 98.8879C216.116 98.5673 216.357 98.2816 216.687 98.0671C217.017 97.8525 217.422 97.7186 217.85 97.6823C218.278 97.6461 218.711 97.7091 219.093 97.8634C219.475 98.0177 219.789 98.2563 219.996 98.5492C220.204 98.8421 220.294 99.176 220.257 99.5087C220.219 99.8415 220.055 100.158 219.786 100.419C219.516 100.679 219.153 100.872 218.742 100.972C218.469 101.041 218.181 101.066 217.896 101.048C217.61 101.029 217.332 100.967 217.077 100.864C216.823 100.761 216.597 100.62 216.414 100.449C216.23 100.278 216.093 100.081 216.008 99.8684V99.8684Z" fill="white"/>
<path opacity="0.8" d="M358.012 62.1899C357.883 61.8713 357.878 61.5301 357.999 61.2095C358.12 60.8888 358.36 60.6032 358.691 60.3886C359.021 60.174 359.425 60.0401 359.854 60.0039C360.282 59.9676 360.714 60.0306 361.096 60.1849C361.478 60.3392 361.793 60.5779 362 60.8707C362.207 61.1636 362.298 61.4975 362.26 61.8302C362.223 62.163 362.059 62.4796 361.789 62.7402C361.52 63.0007 361.157 63.1934 360.746 63.2939C360.473 63.3623 360.185 63.3879 359.899 63.3692C359.614 63.3506 359.335 63.2881 359.081 63.1853C358.827 63.0826 358.601 62.9417 358.418 62.7708C358.234 62.5999 358.096 62.4025 358.012 62.1899V62.1899Z" fill="white"/>
<path opacity="0.8" d="M216.008 99.8684C215.879 99.5497 215.875 99.2085 215.995 98.8879C216.116 98.5673 216.357 98.2816 216.687 98.0671C217.017 97.8525 217.422 97.7186 217.85 97.6823C218.278 97.6461 218.711 97.7091 219.093 97.8634C219.475 98.0177 219.789 98.2563 219.996 98.5492C220.204 98.8421 220.294 99.176 220.257 99.5087C220.219 99.8415 220.055 100.158 219.786 100.419C219.516 100.679 219.153 100.872 218.742 100.972C218.469 101.041 218.181 101.066 217.896 101.048C217.61 101.029 217.332 100.967 217.077 100.864C216.823 100.761 216.597 100.62 216.414 100.449C216.23 100.278 216.093 100.081 216.008 99.8684V99.8684Z" fill="white"/>
<path opacity="0.8" d="M216.008 99.8684C215.879 99.5497 215.875 99.2085 215.995 98.8879C216.116 98.5673 216.357 98.2816 216.687 98.0671C217.017 97.8525 217.422 97.7186 217.85 97.6823C218.278 97.6461 218.711 97.7091 219.093 97.8634C219.475 98.0177 219.789 98.2563 219.996 98.5492C220.204 98.8421 220.294 99.176 220.257 99.5087C220.219 99.8415 220.055 100.158 219.786 100.419C219.516 100.679 219.153 100.872 218.742 100.972C218.469 101.041 218.181 101.066 217.896 101.048C217.61 101.029 217.332 100.967 217.077 100.864C216.823 100.761 216.597 100.62 216.414 100.449C216.23 100.278 216.093 100.081 216.008 99.8684V99.8684Z" fill="white"/>
<path opacity="0.8" d="M319.825 128.342C319.696 128.024 319.692 127.682 319.812 127.362C319.933 127.041 320.174 126.756 320.504 126.541C320.834 126.326 321.239 126.192 321.667 126.156C322.095 126.12 322.528 126.183 322.91 126.337C323.292 126.492 323.606 126.73 323.814 127.023C324.021 127.316 324.111 127.65 324.074 127.983C324.036 128.315 323.872 128.632 323.603 128.892C323.333 129.153 322.97 129.346 322.559 129.446C322.286 129.513 321.999 129.537 321.714 129.518C321.429 129.499 321.151 129.436 320.897 129.334C320.643 129.231 320.418 129.091 320.234 128.921C320.05 128.75 319.911 128.554 319.825 128.342V128.342Z" fill="white"/>
<path opacity="0.8" d="M253.219 24.1665C253.089 23.8479 253.085 23.5067 253.206 23.186C253.326 22.8654 253.567 22.5798 253.897 22.3652C254.227 22.1506 254.632 22.0167 255.06 21.9804C255.488 21.9442 255.921 22.0072 256.303 22.1615C256.685 22.3158 257 22.5544 257.207 22.8473C257.414 23.1402 257.504 23.4741 257.467 23.8068C257.429 24.1396 257.265 24.4562 256.996 24.7168C256.726 24.9773 256.363 25.17 255.952 25.2706C255.679 25.3374 255.392 25.3618 255.107 25.3425C254.822 25.3231 254.544 25.2604 254.29 25.1579C254.036 25.0553 253.811 24.915 253.627 24.7449C253.443 24.5748 253.304 24.3782 253.219 24.1665V24.1665Z" fill="white"/>
<path opacity="0.8" d="M319.825 128.342C319.696 128.024 319.692 127.682 319.812 127.362C319.933 127.041 320.174 126.756 320.504 126.541C320.834 126.326 321.239 126.192 321.667 126.156C322.095 126.12 322.528 126.183 322.91 126.337C323.292 126.492 323.606 126.73 323.814 127.023C324.021 127.316 324.111 127.65 324.074 127.983C324.036 128.315 323.872 128.632 323.603 128.892C323.333 129.153 322.97 129.346 322.559 129.446C322.286 129.513 321.999 129.537 321.714 129.518C321.429 129.499 321.151 129.436 320.897 129.334C320.643 129.231 320.418 129.091 320.234 128.921C320.05 128.75 319.911 128.554 319.825 128.342V128.342Z" fill="white"/>
<path opacity="0.8" d="M319.825 128.342C319.696 128.024 319.692 127.682 319.812 127.362C319.933 127.041 320.174 126.756 320.504 126.541C320.834 126.326 321.239 126.192 321.667 126.156C322.095 126.12 322.528 126.183 322.91 126.337C323.292 126.492 323.606 126.73 323.814 127.023C324.021 127.316 324.111 127.65 324.074 127.983C324.036 128.315 323.872 128.632 323.603 128.892C323.333 129.153 322.97 129.346 322.559 129.446C322.286 129.513 321.999 129.537 321.714 129.518C321.429 129.499 321.151 129.436 320.897 129.334C320.643 129.231 320.418 129.091 320.234 128.921C320.05 128.75 319.911 128.554 319.825 128.342V128.342Z" fill="white"/>
<path opacity="0.8" d="M192.872 161.474C192.743 161.155 192.738 160.814 192.859 160.493C192.98 160.173 193.221 159.887 193.551 159.672C193.881 159.458 194.286 159.324 194.714 159.288C195.142 159.251 195.575 159.314 195.957 159.469C196.339 159.623 196.653 159.862 196.86 160.154C197.068 160.447 197.158 160.781 197.12 161.114C197.083 161.447 196.919 161.763 196.65 162.024C196.38 162.285 196.017 162.477 195.606 162.578C195.333 162.645 195.046 162.669 194.76 162.65C194.475 162.63 194.198 162.568 193.944 162.465C193.69 162.363 193.465 162.222 193.281 162.052C193.097 161.882 192.958 161.685 192.872 161.474V161.474Z" fill="white"/>
<path opacity="0.8" d="M319.825 128.342C319.696 128.024 319.692 127.682 319.812 127.362C319.933 127.041 320.174 126.756 320.504 126.541C320.834 126.326 321.239 126.192 321.667 126.156C322.095 126.12 322.528 126.183 322.91 126.337C323.292 126.492 323.606 126.73 323.814 127.023C324.021 127.316 324.111 127.65 324.074 127.983C324.036 128.315 323.872 128.632 323.603 128.892C323.333 129.153 322.97 129.346 322.559 129.446C322.286 129.513 321.999 129.537 321.714 129.518C321.429 129.499 321.151 129.436 320.897 129.334C320.643 129.231 320.418 129.091 320.234 128.921C320.05 128.75 319.911 128.554 319.825 128.342V128.342Z" fill="white"/>
<path opacity="0.8" d="M192.872 161.474C192.743 161.155 192.738 160.814 192.859 160.493C192.98 160.173 193.221 159.887 193.551 159.672C193.881 159.458 194.286 159.324 194.714 159.288C195.142 159.251 195.575 159.314 195.957 159.469C196.339 159.623 196.653 159.862 196.86 160.154C197.068 160.447 197.158 160.781 197.12 161.114C197.083 161.447 196.919 161.763 196.65 162.024C196.38 162.285 196.017 162.477 195.606 162.578C195.333 162.645 195.046 162.669 194.76 162.65C194.475 162.63 194.198 162.568 193.944 162.465C193.69 162.363 193.465 162.222 193.281 162.052C193.097 161.882 192.958 161.685 192.872 161.474V161.474Z" fill="white"/>
<path opacity="0.8" d="M319.825 128.342C319.696 128.024 319.692 127.682 319.812 127.362C319.933 127.041 320.174 126.756 320.504 126.541C320.834 126.326 321.239 126.192 321.667 126.156C322.095 126.12 322.528 126.183 322.91 126.337C323.292 126.492 323.606 126.73 323.814 127.023C324.021 127.316 324.111 127.65 324.074 127.983C324.036 128.315 323.872 128.632 323.603 128.892C323.333 129.153 322.97 129.346 322.559 129.446C322.286 129.513 321.999 129.537 321.714 129.518C321.429 129.499 321.151 129.436 320.897 129.334C320.643 129.231 320.418 129.091 320.234 128.921C320.05 128.75 319.911 128.554 319.825 128.342V128.342Z" fill="white"/>
<path opacity="0.8" d="M319.825 128.342C319.696 128.024 319.692 127.682 319.812 127.362C319.933 127.041 320.174 126.756 320.504 126.541C320.834 126.326 321.239 126.192 321.667 126.156C322.095 126.12 322.528 126.183 322.91 126.337C323.292 126.492 323.606 126.73 323.814 127.023C324.021 127.316 324.111 127.65 324.074 127.983C324.036 128.315 323.872 128.632 323.603 128.892C323.333 129.153 322.97 129.346 322.559 129.446C322.286 129.513 321.999 129.537 321.714 129.518C321.429 129.499 321.151 129.436 320.897 129.334C320.643 129.231 320.418 129.091 320.234 128.921C320.05 128.75 319.911 128.554 319.825 128.342V128.342Z" fill="white"/>
<path opacity="0.8" d="M195.576 157.699C195.422 157.278 195.484 156.827 195.75 156.441C196.016 156.055 196.465 155.765 197.002 155.63C197.539 155.496 198.122 155.528 198.629 155.72C199.136 155.913 199.527 156.25 199.719 156.661C199.89 157.09 199.836 157.554 199.57 157.953C199.304 158.351 198.846 158.653 198.296 158.792C197.748 158.924 197.155 158.883 196.646 158.679C196.137 158.474 195.753 158.122 195.576 157.699V157.699Z" fill="white"/>
<path opacity="0.8" d="M319.825 128.342C319.696 128.024 319.692 127.682 319.812 127.362C319.933 127.041 320.174 126.756 320.504 126.541C320.834 126.326 321.239 126.192 321.667 126.156C322.095 126.12 322.528 126.183 322.91 126.337C323.292 126.492 323.606 126.73 323.814 127.023C324.021 127.316 324.111 127.65 324.074 127.983C324.036 128.315 323.872 128.632 323.603 128.892C323.333 129.153 322.97 129.346 322.559 129.446C322.286 129.513 321.999 129.537 321.714 129.518C321.429 129.499 321.151 129.436 320.897 129.334C320.643 129.231 320.418 129.091 320.234 128.921C320.05 128.75 319.911 128.554 319.825 128.342V128.342Z" fill="white"/>
<path opacity="0.8" d="M319.825 128.342C319.696 128.024 319.692 127.682 319.812 127.362C319.933 127.041 320.174 126.756 320.504 126.541C320.834 126.326 321.239 126.192 321.667 126.156C322.095 126.12 322.528 126.183 322.91 126.337C323.292 126.492 323.606 126.73 323.814 127.023C324.021 127.316 324.111 127.65 324.074 127.983C324.036 128.315 323.872 128.632 323.603 128.892C323.333 129.153 322.97 129.346 322.559 129.446C322.286 129.513 321.999 129.537 321.714 129.518C321.429 129.499 321.151 129.436 320.897 129.334C320.643 129.231 320.418 129.091 320.234 128.921C320.05 128.75 319.911 128.554 319.825 128.342V128.342Z" fill="white"/>
<path opacity="0.8" d="M259.979 180.192C259.88 179.978 259.836 179.752 259.852 179.525C259.867 179.298 259.942 179.077 260.07 178.873C260.199 178.669 260.379 178.487 260.6 178.339C260.822 178.19 261.079 178.078 261.357 178.008C261.636 177.938 261.93 177.913 262.221 177.933C262.513 177.953 262.796 178.019 263.054 178.126C263.312 178.232 263.54 178.379 263.723 178.555C263.907 178.732 264.043 178.936 264.123 179.154C264.277 179.575 264.214 180.026 263.948 180.412C263.682 180.798 263.234 181.088 262.697 181.223C262.16 181.357 261.576 181.325 261.07 181.133C260.563 180.94 260.172 180.603 259.979 180.192Z" fill="white"/>
<path opacity="0.8" d="M319.825 128.342C319.696 128.024 319.692 127.682 319.812 127.362C319.933 127.041 320.174 126.756 320.504 126.541C320.834 126.326 321.239 126.192 321.667 126.156C322.095 126.12 322.528 126.183 322.91 126.337C323.292 126.492 323.606 126.73 323.814 127.023C324.021 127.316 324.111 127.65 324.074 127.983C324.036 128.315 323.872 128.632 323.603 128.892C323.333 129.153 322.97 129.346 322.559 129.446C322.286 129.513 321.999 129.537 321.714 129.518C321.429 129.499 321.151 129.436 320.897 129.334C320.643 129.231 320.418 129.091 320.234 128.921C320.05 128.75 319.911 128.554 319.825 128.342V128.342Z" fill="white"/>
<path opacity="0.8" d="M358.012 62.1899C357.883 61.8713 357.878 61.5301 357.999 61.2095C358.12 60.8888 358.36 60.6032 358.691 60.3886C359.021 60.174 359.425 60.0401 359.854 60.0039C360.282 59.9676 360.714 60.0306 361.096 60.1849C361.478 60.3392 361.793 60.5779 362 60.8707C362.207 61.1636 362.298 61.4975 362.26 61.8302C362.223 62.163 362.059 62.4796 361.789 62.7402C361.52 63.0007 361.157 63.1934 360.746 63.2939C360.473 63.3623 360.185 63.3879 359.899 63.3692C359.614 63.3506 359.335 63.2881 359.081 63.1853C358.827 63.0826 358.601 62.9417 358.418 62.7708C358.234 62.5999 358.096 62.4025 358.012 62.1899V62.1899Z" fill="white"/>
<path opacity="0.8" d="M319.825 128.342C319.696 128.024 319.692 127.682 319.812 127.362C319.933 127.041 320.174 126.756 320.504 126.541C320.834 126.326 321.239 126.192 321.667 126.156C322.095 126.12 322.528 126.183 322.91 126.337C323.292 126.492 323.606 126.73 323.814 127.023C324.021 127.316 324.111 127.65 324.074 127.983C324.036 128.315 323.872 128.632 323.603 128.892C323.333 129.153 322.97 129.346 322.559 129.446C322.286 129.513 321.999 129.537 321.714 129.518C321.429 129.499 321.151 129.436 320.897 129.334C320.643 129.231 320.418 129.091 320.234 128.921C320.05 128.75 319.911 128.554 319.825 128.342V128.342Z" fill="white"/>
<path opacity="0.8" d="M253.219 24.1665C253.089 23.8479 253.085 23.5067 253.206 23.186C253.326 22.8654 253.567 22.5798 253.897 22.3652C254.227 22.1506 254.632 22.0167 255.06 21.9804C255.488 21.9442 255.921 22.0072 256.303 22.1615C256.685 22.3158 257 22.5544 257.207 22.8473C257.414 23.1402 257.504 23.4741 257.467 23.8068C257.429 24.1396 257.265 24.4562 256.996 24.7168C256.726 24.9773 256.363 25.17 255.952 25.2706C255.679 25.3374 255.392 25.3618 255.107 25.3425C254.822 25.3231 254.544 25.2604 254.29 25.1579C254.036 25.0553 253.811 24.915 253.627 24.7449C253.443 24.5748 253.304 24.3782 253.219 24.1665V24.1665Z" fill="white"/>
<path opacity="0.8" d="M214.085 36.211C213.956 35.8924 213.952 35.5512 214.072 35.2306C214.193 34.91 214.434 34.6243 214.764 34.4097C215.094 34.1951 215.499 34.0612 215.927 34.025C216.355 33.9887 216.788 34.0517 217.17 34.206C217.552 34.3603 217.866 34.599 218.074 34.8919C218.281 35.1847 218.371 35.5186 218.334 35.8514C218.296 36.1841 218.132 36.5008 217.863 36.7613C217.593 37.0218 217.23 37.2145 216.819 37.3151C216.268 37.447 215.672 37.405 215.16 37.1984C214.648 36.9917 214.262 36.6369 214.085 36.211V36.211Z" fill="white"/>
<path opacity="0.8" d="M358.012 62.1899C357.883 61.8713 357.878 61.5301 357.999 61.2095C358.12 60.8888 358.36 60.6032 358.691 60.3886C359.021 60.174 359.425 60.0401 359.854 60.0039C360.282 59.9676 360.714 60.0306 361.096 60.1849C361.478 60.3392 361.793 60.5779 362 60.8707C362.207 61.1636 362.298 61.4975 362.26 61.8302C362.223 62.163 362.059 62.4796 361.789 62.7402C361.52 63.0007 361.157 63.1934 360.746 63.2939C360.473 63.3623 360.185 63.3879 359.899 63.3692C359.614 63.3506 359.335 63.2881 359.081 63.1853C358.827 63.0826 358.601 62.9417 358.418 62.7708C358.234 62.5999 358.096 62.4025 358.012 62.1899V62.1899Z" fill="white"/>
<path opacity="0.8" d="M216.008 99.8684C215.879 99.5497 215.875 99.2085 215.995 98.8879C216.116 98.5673 216.357 98.2816 216.687 98.0671C217.017 97.8525 217.422 97.7186 217.85 97.6823C218.278 97.6461 218.711 97.7091 219.093 97.8634C219.475 98.0177 219.789 98.2563 219.996 98.5492C220.204 98.8421 220.294 99.176 220.257 99.5087C220.219 99.8415 220.055 100.158 219.786 100.419C219.516 100.679 219.153 100.872 218.742 100.972C218.469 101.041 218.181 101.066 217.896 101.048C217.61 101.029 217.332 100.967 217.077 100.864C216.823 100.761 216.597 100.62 216.414 100.449C216.23 100.278 216.093 100.081 216.008 99.8684V99.8684Z" fill="white"/>
<path opacity="0.8" d="M145.816 81.3519C145.687 81.0333 145.682 80.6921 145.803 80.3715C145.924 80.0509 146.164 79.7653 146.495 79.5507C146.825 79.3361 147.229 79.2022 147.658 79.166C148.086 79.1297 148.518 79.1927 148.9 79.347C149.282 79.5013 149.597 79.74 149.804 80.0328C150.011 80.3257 150.102 80.6596 150.064 80.9923C150.027 81.325 149.863 81.6417 149.593 81.9022C149.324 82.1627 148.961 82.3554 148.55 82.4559C148.277 82.5243 147.989 82.5498 147.703 82.5312C147.417 82.5126 147.139 82.4501 146.885 82.3473C146.631 82.2446 146.405 82.1037 146.222 81.9328C146.038 81.762 145.9 81.5645 145.816 81.3519V81.3519Z" fill="white"/>
<path opacity="0.8" d="M253.219 24.1665C253.089 23.8479 253.085 23.5067 253.206 23.186C253.326 22.8654 253.567 22.5798 253.897 22.3652C254.227 22.1506 254.632 22.0167 255.06 21.9804C255.488 21.9442 255.921 22.0072 256.303 22.1615C256.685 22.3158 257 22.5544 257.207 22.8473C257.414 23.1402 257.504 23.4741 257.467 23.8068C257.429 24.1396 257.265 24.4562 256.996 24.7168C256.726 24.9773 256.363 25.17 255.952 25.2706C255.679 25.3374 255.392 25.3618 255.107 25.3425C254.822 25.3231 254.544 25.2604 254.29 25.1579C254.036 25.0553 253.811 24.915 253.627 24.7449C253.443 24.5748 253.304 24.3782 253.219 24.1665V24.1665Z" fill="white"/>
<path opacity="0.8" d="M145.816 81.3519C145.687 81.0333 145.682 80.6921 145.803 80.3715C145.924 80.0509 146.164 79.7653 146.495 79.5507C146.825 79.3361 147.229 79.2022 147.658 79.166C148.086 79.1297 148.518 79.1927 148.9 79.347C149.282 79.5013 149.597 79.74 149.804 80.0328C150.011 80.3257 150.102 80.6596 150.064 80.9923C150.027 81.325 149.863 81.6417 149.593 81.9022C149.324 82.1627 148.961 82.3554 148.55 82.4559C148.277 82.5243 147.989 82.5498 147.703 82.5312C147.417 82.5126 147.139 82.4501 146.885 82.3473C146.631 82.2446 146.405 82.1037 146.222 81.9328C146.038 81.762 145.9 81.5645 145.816 81.3519V81.3519Z" fill="white"/>
<path opacity="0.8" d="M214.085 36.211C213.956 35.8924 213.952 35.5512 214.072 35.2306C214.193 34.91 214.434 34.6243 214.764 34.4097C215.094 34.1951 215.499 34.0612 215.927 34.025C216.355 33.9887 216.788 34.0517 217.17 34.206C217.552 34.3603 217.866 34.599 218.074 34.8919C218.281 35.1847 218.371 35.5186 218.334 35.8514C218.296 36.1841 218.132 36.5008 217.863 36.7613C217.593 37.0218 217.23 37.2145 216.819 37.3151C216.268 37.447 215.672 37.405 215.16 37.1984C214.648 36.9917 214.262 36.6369 214.085 36.211V36.211Z" fill="white"/>
<path opacity="0.8" d="M145.816 81.3519C145.687 81.0333 145.682 80.6921 145.803 80.3715C145.924 80.0509 146.164 79.7653 146.495 79.5507C146.825 79.3361 147.229 79.2022 147.658 79.166C148.086 79.1297 148.518 79.1927 148.9 79.347C149.282 79.5013 149.597 79.74 149.804 80.0328C150.011 80.3257 150.102 80.6596 150.064 80.9923C150.027 81.325 149.863 81.6417 149.593 81.9022C149.324 82.1627 148.961 82.3554 148.55 82.4559C148.277 82.5243 147.989 82.5498 147.703 82.5312C147.417 82.5126 147.139 82.4501 146.885 82.3473C146.631 82.2446 146.405 82.1037 146.222 81.9328C146.038 81.762 145.9 81.5645 145.816 81.3519V81.3519Z" fill="white"/>
<path opacity="0.8" d="M192.872 161.474C192.743 161.155 192.738 160.814 192.859 160.493C192.98 160.173 193.221 159.887 193.551 159.672C193.881 159.458 194.286 159.324 194.714 159.288C195.142 159.251 195.575 159.314 195.957 159.469C196.339 159.623 196.653 159.862 196.86 160.154C197.068 160.447 197.158 160.781 197.12 161.114C197.083 161.447 196.919 161.763 196.65 162.024C196.38 162.285 196.017 162.477 195.606 162.578C195.333 162.645 195.046 162.669 194.76 162.65C194.475 162.63 194.198 162.568 193.944 162.465C193.69 162.363 193.465 162.222 193.281 162.052C193.097 161.882 192.958 161.685 192.872 161.474V161.474Z" fill="white"/>
<path opacity="0.8" d="M145.816 81.3519C145.687 81.0333 145.682 80.6921 145.803 80.3715C145.924 80.0509 146.164 79.7653 146.495 79.5507C146.825 79.3361 147.229 79.2022 147.658 79.166C148.086 79.1297 148.518 79.1927 148.9 79.347C149.282 79.5013 149.597 79.74 149.804 80.0328C150.011 80.3257 150.102 80.6596 150.064 80.9923C150.027 81.325 149.863 81.6417 149.593 81.9022C149.324 82.1627 148.961 82.3554 148.55 82.4559C148.277 82.5243 147.989 82.5498 147.703 82.5312C147.417 82.5126 147.139 82.4501 146.885 82.3473C146.631 82.2446 146.405 82.1037 146.222 81.9328C146.038 81.762 145.9 81.5645 145.816 81.3519V81.3519Z" fill="white"/>
<path opacity="0.8" d="M192.872 161.474C192.743 161.155 192.738 160.814 192.859 160.493C192.98 160.173 193.221 159.887 193.551 159.672C193.881 159.458 194.286 159.324 194.714 159.288C195.142 159.251 195.575 159.314 195.957 159.469C196.339 159.623 196.653 159.862 196.86 160.154C197.068 160.447 197.158 160.781 197.12 161.114C197.083 161.447 196.919 161.763 196.65 162.024C196.38 162.285 196.017 162.477 195.606 162.578C195.333 162.645 195.046 162.669 194.76 162.65C194.475 162.63 194.198 162.568 193.944 162.465C193.69 162.363 193.465 162.222 193.281 162.052C193.097 161.882 192.958 161.685 192.872 161.474V161.474Z" fill="white"/>
<path opacity="0.8" d="M145.816 81.3519C145.687 81.0333 145.682 80.6921 145.803 80.3715C145.924 80.0509 146.164 79.7653 146.495 79.5507C146.825 79.3361 147.229 79.2022 147.658 79.166C148.086 79.1297 148.518 79.1927 148.9 79.347C149.282 79.5013 149.597 79.74 149.804 80.0328C150.011 80.3257 150.102 80.6596 150.064 80.9923C150.027 81.325 149.863 81.6417 149.593 81.9022C149.324 82.1627 148.961 82.3554 148.55 82.4559C148.277 82.5243 147.989 82.5498 147.703 82.5312C147.417 82.5126 147.139 82.4501 146.885 82.3473C146.631 82.2446 146.405 82.1037 146.222 81.9328C146.038 81.762 145.9 81.5645 145.816 81.3519V81.3519Z" fill="white"/>
<path opacity="0.8" d="M126.803 137.895C126.674 137.576 126.669 137.235 126.79 136.915C126.911 136.594 127.151 136.308 127.482 136.094C127.812 135.879 128.216 135.745 128.645 135.709C129.073 135.673 129.505 135.736 129.887 135.89C130.269 136.044 130.584 136.283 130.791 136.576C130.998 136.869 131.089 137.203 131.051 137.535C131.014 137.868 130.85 138.185 130.58 138.445C130.311 138.706 129.948 138.898 129.537 138.999C129.264 139.067 128.976 139.093 128.69 139.074C128.405 139.056 128.126 138.993 127.872 138.89C127.618 138.788 127.392 138.647 127.209 138.476C127.025 138.305 126.887 138.108 126.803 137.895Z" fill="white"/>
<path opacity="0.8" d="M145.816 81.3519C145.687 81.0333 145.682 80.6921 145.803 80.3715C145.924 80.0509 146.164 79.7653 146.495 79.5507C146.825 79.3361 147.229 79.2022 147.658 79.166C148.086 79.1297 148.518 79.1927 148.9 79.347C149.282 79.5013 149.597 79.74 149.804 80.0328C150.011 80.3257 150.102 80.6596 150.064 80.9923C150.027 81.325 149.863 81.6417 149.593 81.9022C149.324 82.1627 148.961 82.3554 148.55 82.4559C148.277 82.5243 147.989 82.5498 147.703 82.5312C147.417 82.5126 147.139 82.4501 146.885 82.3473C146.631 82.2446 146.405 82.1037 146.222 81.9328C146.038 81.762 145.9 81.5645 145.816 81.3519V81.3519Z" fill="white"/>
<path opacity="0.8" d="M195.576 157.699C195.422 157.278 195.484 156.827 195.75 156.441C196.016 156.055 196.465 155.765 197.002 155.63C197.539 155.496 198.122 155.528 198.629 155.72C199.136 155.913 199.527 156.25 199.719 156.661C199.89 157.09 199.836 157.554 199.57 157.953C199.304 158.351 198.846 158.653 198.296 158.792C197.748 158.924 197.155 158.883 196.646 158.679C196.137 158.474 195.753 158.122 195.576 157.699V157.699Z" fill="white"/>
<path opacity="0.8" d="M145.816 81.3519C145.687 81.0333 145.682 80.6921 145.803 80.3715C145.924 80.0509 146.164 79.7653 146.495 79.5507C146.825 79.3361 147.229 79.2022 147.658 79.166C148.086 79.1297 148.518 79.1927 148.9 79.347C149.282 79.5013 149.597 79.74 149.804 80.0328C150.011 80.3257 150.102 80.6596 150.064 80.9923C150.027 81.325 149.863 81.6417 149.593 81.9022C149.324 82.1627 148.961 82.3554 148.55 82.4559C148.277 82.5243 147.989 82.5498 147.703 82.5312C147.417 82.5126 147.139 82.4501 146.885 82.3473C146.631 82.2446 146.405 82.1037 146.222 81.9328C146.038 81.762 145.9 81.5645 145.816 81.3519V81.3519Z" fill="white"/>
<path opacity="0.8" d="M126.803 137.895C126.674 137.576 126.669 137.235 126.79 136.915C126.911 136.594 127.151 136.308 127.482 136.094C127.812 135.879 128.216 135.745 128.645 135.709C129.073 135.673 129.505 135.736 129.887 135.89C130.269 136.044 130.584 136.283 130.791 136.576C130.998 136.869 131.089 137.203 131.051 137.535C131.014 137.868 130.85 138.185 130.58 138.445C130.311 138.706 129.948 138.898 129.537 138.999C129.264 139.067 128.976 139.093 128.69 139.074C128.405 139.056 128.126 138.993 127.872 138.89C127.618 138.788 127.392 138.647 127.209 138.476C127.025 138.305 126.887 138.108 126.803 137.895Z" fill="white"/>
<path opacity="0.8" d="M0.0979336 173.434C-0.0726111 173.005 -0.0189352 172.542 0.247409 172.143C0.513753 171.744 0.971434 171.443 1.52177 171.304C1.93222 171.204 2.37144 171.201 2.78408 171.295C3.19672 171.389 3.56432 171.575 3.84059 171.831C4.11687 172.086 4.28946 172.399 4.3366 172.731C4.38374 173.062 4.30332 173.397 4.1055 173.693C3.90768 173.989 3.60128 174.233 3.22492 174.394C2.84856 174.556 2.41906 174.627 1.99053 174.599C1.56201 174.572 1.15364 174.446 0.816849 174.239C0.480053 174.032 0.22991 173.752 0.0979336 173.434Z" fill="white"/>
<path opacity="0.8" d="M319.825 128.342C319.696 128.024 319.692 127.682 319.812 127.362C319.933 127.041 320.174 126.756 320.504 126.541C320.834 126.326 321.239 126.192 321.667 126.156C322.095 126.12 322.528 126.183 322.91 126.337C323.292 126.492 323.606 126.73 323.814 127.023C324.021 127.316 324.111 127.65 324.074 127.983C324.036 128.315 323.872 128.632 323.603 128.892C323.333 129.153 322.97 129.346 322.559 129.446C322.286 129.513 321.999 129.537 321.714 129.518C321.429 129.499 321.151 129.436 320.897 129.334C320.643 129.231 320.418 129.091 320.234 128.921C320.05 128.75 319.911 128.554 319.825 128.342V128.342Z" fill="white"/>
<path opacity="0.8" d="M370.713 185.358C370.584 185.039 370.579 184.698 370.7 184.377C370.821 184.057 371.062 183.771 371.392 183.556C371.722 183.342 372.127 183.208 372.555 183.172C372.983 183.135 373.416 183.198 373.798 183.353C374.18 183.507 374.494 183.746 374.701 184.039C374.909 184.331 374.999 184.665 374.962 184.998C374.924 185.331 374.76 185.648 374.491 185.908C374.221 186.169 373.858 186.361 373.447 186.462C373.174 186.529 372.887 186.553 372.602 186.534C372.316 186.514 372.039 186.452 371.785 186.349C371.531 186.247 371.306 186.106 371.122 185.936C370.938 185.766 370.799 185.57 370.713 185.358Z" fill="white"/>
<path opacity="0.8" d="M370.713 185.358C370.584 185.039 370.579 184.698 370.7 184.377C370.821 184.057 371.062 183.771 371.392 183.556C371.722 183.342 372.127 183.208 372.555 183.172C372.983 183.135 373.416 183.198 373.798 183.353C374.18 183.507 374.494 183.746 374.701 184.039C374.909 184.331 374.999 184.665 374.962 184.998C374.924 185.331 374.76 185.648 374.491 185.908C374.221 186.169 373.858 186.361 373.447 186.462C373.174 186.529 372.887 186.553 372.602 186.534C372.316 186.514 372.039 186.452 371.785 186.349C371.531 186.247 371.306 186.106 371.122 185.936C370.938 185.766 370.799 185.57 370.713 185.358Z" fill="white"/>
<path opacity="0.8" d="M370.713 185.358C370.584 185.039 370.579 184.698 370.7 184.377C370.821 184.057 371.062 183.771 371.392 183.556C371.722 183.342 372.127 183.208 372.555 183.172C372.983 183.135 373.416 183.198 373.798 183.353C374.18 183.507 374.494 183.746 374.701 184.039C374.909 184.331 374.999 184.665 374.962 184.998C374.924 185.331 374.76 185.648 374.491 185.908C374.221 186.169 373.858 186.361 373.447 186.462C373.174 186.529 372.887 186.553 372.602 186.534C372.316 186.514 372.039 186.452 371.785 186.349C371.531 186.247 371.306 186.106 371.122 185.936C370.938 185.766 370.799 185.57 370.713 185.358Z" fill="white"/>
<path opacity="0.8" d="M370.713 185.358C370.584 185.039 370.579 184.698 370.7 184.377C370.821 184.057 371.062 183.771 371.392 183.556C371.722 183.342 372.127 183.208 372.555 183.172C372.983 183.135 373.416 183.198 373.798 183.353C374.18 183.507 374.494 183.746 374.701 184.039C374.909 184.331 374.999 184.665 374.962 184.998C374.924 185.331 374.76 185.648 374.491 185.908C374.221 186.169 373.858 186.361 373.447 186.462C373.174 186.529 372.887 186.553 372.602 186.534C372.316 186.514 372.039 186.452 371.785 186.349C371.531 186.247 371.306 186.106 371.122 185.936C370.938 185.766 370.799 185.57 370.713 185.358Z" fill="white"/>
<path opacity="0.8" d="M259.979 180.192C259.88 179.978 259.836 179.752 259.852 179.525C259.867 179.298 259.942 179.077 260.07 178.873C260.199 178.669 260.379 178.487 260.6 178.339C260.822 178.19 261.079 178.078 261.357 178.008C261.636 177.938 261.93 177.913 262.221 177.933C262.513 177.953 262.796 178.019 263.054 178.126C263.312 178.232 263.54 178.379 263.723 178.555C263.907 178.732 264.043 178.936 264.123 179.154C264.277 179.575 264.214 180.026 263.948 180.412C263.682 180.798 263.234 181.088 262.697 181.223C262.16 181.357 261.576 181.325 261.07 181.133C260.563 180.94 260.172 180.603 259.979 180.192Z" fill="white"/>
<path opacity="0.8" d="M370.713 185.358C370.584 185.039 370.579 184.698 370.7 184.377C370.821 184.057 371.062 183.771 371.392 183.556C371.722 183.342 372.127 183.208 372.555 183.172C372.983 183.135 373.416 183.198 373.798 183.353C374.18 183.507 374.494 183.746 374.701 184.039C374.909 184.331 374.999 184.665 374.962 184.998C374.924 185.331 374.76 185.648 374.491 185.908C374.221 186.169 373.858 186.361 373.447 186.462C373.174 186.529 372.887 186.553 372.602 186.534C372.316 186.514 372.039 186.452 371.785 186.349C371.531 186.247 371.306 186.106 371.122 185.936C370.938 185.766 370.799 185.57 370.713 185.358Z" fill="white"/>
<path opacity="0.8" d="M0.0979336 173.434C-0.0726111 173.005 -0.0189352 172.542 0.247409 172.143C0.513753 171.744 0.971434 171.443 1.52177 171.304C1.93222 171.204 2.37144 171.201 2.78408 171.295C3.19672 171.389 3.56432 171.575 3.84059 171.831C4.11687 172.086 4.28946 172.399 4.3366 172.731C4.38374 173.062 4.30332 173.397 4.1055 173.693C3.90768 173.989 3.60128 174.233 3.22492 174.394C2.84856 174.556 2.41906 174.627 1.99053 174.599C1.56201 174.572 1.15364 174.446 0.816849 174.239C0.480053 174.032 0.22991 173.752 0.0979336 173.434Z" fill="white"/>
<path opacity="0.8" d="M88.9309 191.993C88.8017 191.674 88.7972 191.333 88.9179 191.012C89.0387 190.692 89.2794 190.406 89.6095 190.191C89.9396 189.977 90.3444 189.843 90.7726 189.807C91.2008 189.77 91.6333 189.833 92.0153 189.988C92.3974 190.142 92.7119 190.381 92.919 190.674C93.1262 190.966 93.2167 191.3 93.1792 191.633C93.1417 191.966 92.9778 192.282 92.7082 192.543C92.4386 192.804 92.0755 192.996 91.6647 193.097C91.3918 193.165 91.1041 193.191 90.8183 193.172C90.5325 193.153 90.2543 193.091 90 192.988C89.7456 192.885 89.5201 192.745 89.3366 192.574C89.1531 192.403 89.0152 192.205 88.9309 191.993Z" fill="white"/>
<path opacity="0.8" d="M145.816 81.3519C145.687 81.0333 145.682 80.6921 145.803 80.3715C145.924 80.0509 146.164 79.7653 146.495 79.5507C146.825 79.3361 147.229 79.2022 147.658 79.166C148.086 79.1297 148.518 79.1927 148.9 79.347C149.282 79.5013 149.597 79.74 149.804 80.0328C150.011 80.3257 150.102 80.6596 150.064 80.9923C150.027 81.325 149.863 81.6417 149.593 81.9022C149.324 82.1627 148.961 82.3554 148.55 82.4559C148.277 82.5243 147.989 82.5498 147.703 82.5312C147.417 82.5126 147.139 82.4501 146.885 82.3473C146.631 82.2446 146.405 82.1037 146.222 81.9328C146.038 81.762 145.9 81.5645 145.816 81.3519V81.3519Z" fill="white"/>
<path opacity="0.8" d="M88.9309 191.993C88.8017 191.674 88.7972 191.333 88.9179 191.012C89.0387 190.692 89.2794 190.406 89.6095 190.191C89.9396 189.977 90.3444 189.843 90.7726 189.807C91.2008 189.77 91.6333 189.833 92.0153 189.988C92.3974 190.142 92.7119 190.381 92.919 190.674C93.1262 190.966 93.2167 191.3 93.1792 191.633C93.1417 191.966 92.9778 192.282 92.7082 192.543C92.4386 192.804 92.0755 192.996 91.6647 193.097C91.3918 193.165 91.1041 193.191 90.8183 193.172C90.5325 193.153 90.2543 193.091 90 192.988C89.7456 192.885 89.5201 192.745 89.3366 192.574C89.1531 192.403 89.0152 192.205 88.9309 191.993Z" fill="white"/>
<path opacity="0.8" d="M192.872 161.474C192.743 161.155 192.738 160.814 192.859 160.493C192.98 160.173 193.221 159.887 193.551 159.672C193.881 159.458 194.286 159.324 194.714 159.288C195.142 159.251 195.575 159.314 195.957 159.469C196.339 159.623 196.653 159.862 196.86 160.154C197.068 160.447 197.158 160.781 197.12 161.114C197.083 161.447 196.919 161.763 196.65 162.024C196.38 162.285 196.017 162.477 195.606 162.578C195.333 162.645 195.046 162.669 194.76 162.65C194.475 162.63 194.198 162.568 193.944 162.465C193.69 162.363 193.465 162.222 193.281 162.052C193.097 161.882 192.958 161.685 192.872 161.474V161.474Z" fill="white"/>
<path opacity="0.8" d="M88.9309 191.993C88.8017 191.674 88.7972 191.333 88.9179 191.012C89.0387 190.692 89.2794 190.406 89.6095 190.191C89.9396 189.977 90.3444 189.843 90.7726 189.807C91.2008 189.77 91.6333 189.833 92.0153 189.988C92.3974 190.142 92.7119 190.381 92.919 190.674C93.1262 190.966 93.2167 191.3 93.1792 191.633C93.1417 191.966 92.9778 192.282 92.7082 192.543C92.4386 192.804 92.0755 192.996 91.6647 193.097C91.3918 193.165 91.1041 193.191 90.8183 193.172C90.5325 193.153 90.2543 193.091 90 192.988C89.7456 192.885 89.5201 192.745 89.3366 192.574C89.1531 192.403 89.0152 192.205 88.9309 191.993Z" fill="white"/>
<path opacity="0.8" d="M192.872 161.474C192.743 161.155 192.738 160.814 192.859 160.493C192.98 160.173 193.221 159.887 193.551 159.672C193.881 159.458 194.286 159.324 194.714 159.288C195.142 159.251 195.575 159.314 195.957 159.469C196.339 159.623 196.653 159.862 196.86 160.154C197.068 160.447 197.158 160.781 197.12 161.114C197.083 161.447 196.919 161.763 196.65 162.024C196.38 162.285 196.017 162.477 195.606 162.578C195.333 162.645 195.046 162.669 194.76 162.65C194.475 162.63 194.198 162.568 193.944 162.465C193.69 162.363 193.465 162.222 193.281 162.052C193.097 161.882 192.958 161.685 192.872 161.474V161.474Z" fill="white"/>
<path opacity="0.8" d="M88.9309 191.993C88.8017 191.674 88.7972 191.333 88.9179 191.012C89.0387 190.692 89.2794 190.406 89.6095 190.191C89.9396 189.977 90.3444 189.843 90.7726 189.807C91.2008 189.77 91.6333 189.833 92.0153 189.988C92.3974 190.142 92.7119 190.381 92.919 190.674C93.1262 190.966 93.2167 191.3 93.1792 191.633C93.1417 191.966 92.9778 192.282 92.7082 192.543C92.4386 192.804 92.0755 192.996 91.6647 193.097C91.3918 193.165 91.1041 193.191 90.8183 193.172C90.5325 193.153 90.2543 193.091 90 192.988C89.7456 192.885 89.5201 192.745 89.3366 192.574C89.1531 192.403 89.0152 192.205 88.9309 191.993Z" fill="white"/>
<path opacity="0.8" d="M126.803 137.895C126.674 137.576 126.669 137.235 126.79 136.915C126.911 136.594 127.151 136.308 127.482 136.094C127.812 135.879 128.216 135.745 128.645 135.709C129.073 135.673 129.505 135.736 129.887 135.89C130.269 136.044 130.584 136.283 130.791 136.576C130.998 136.869 131.089 137.203 131.051 137.535C131.014 137.868 130.85 138.185 130.58 138.445C130.311 138.706 129.948 138.898 129.537 138.999C129.264 139.067 128.976 139.093 128.69 139.074C128.405 139.056 128.126 138.993 127.872 138.89C127.618 138.788 127.392 138.647 127.209 138.476C127.025 138.305 126.887 138.108 126.803 137.895Z" fill="white"/>
<path opacity="0.8" d="M88.9309 191.993C88.8017 191.674 88.7972 191.333 88.9179 191.012C89.0387 190.692 89.2794 190.406 89.6095 190.191C89.9396 189.977 90.3444 189.843 90.7726 189.807C91.2008 189.77 91.6333 189.833 92.0153 189.988C92.3974 190.142 92.7119 190.381 92.919 190.674C93.1262 190.966 93.2167 191.3 93.1792 191.633C93.1417 191.966 92.9778 192.282 92.7082 192.543C92.4386 192.804 92.0755 192.996 91.6647 193.097C91.3918 193.165 91.1041 193.191 90.8183 193.172C90.5325 193.153 90.2543 193.091 90 192.988C89.7456 192.885 89.5201 192.745 89.3366 192.574C89.1531 192.403 89.0152 192.205 88.9309 191.993Z" fill="white"/>
<path opacity="0.8" d="M195.576 157.699C195.422 157.278 195.484 156.827 195.75 156.441C196.016 156.055 196.465 155.765 197.002 155.63C197.539 155.496 198.122 155.528 198.629 155.72C199.136 155.913 199.527 156.25 199.719 156.661C199.89 157.09 199.836 157.554 199.57 157.953C199.304 158.351 198.846 158.653 198.296 158.792C197.748 158.924 197.155 158.883 196.646 158.679C196.137 158.474 195.753 158.122 195.576 157.699V157.699Z" fill="white"/>
<path opacity="0.8" d="M88.9309 191.993C88.8017 191.674 88.7972 191.333 88.9179 191.012C89.0387 190.692 89.2794 190.406 89.6095 190.191C89.9396 189.977 90.3444 189.843 90.7726 189.807C91.2008 189.77 91.6333 189.833 92.0153 189.988C92.3974 190.142 92.7119 190.381 92.919 190.674C93.1262 190.966 93.2167 191.3 93.1792 191.633C93.1417 191.966 92.9778 192.282 92.7082 192.543C92.4386 192.804 92.0755 192.996 91.6647 193.097C91.3918 193.165 91.1041 193.191 90.8183 193.172C90.5325 193.153 90.2543 193.091 90 192.988C89.7456 192.885 89.5201 192.745 89.3366 192.574C89.1531 192.403 89.0152 192.205 88.9309 191.993Z" fill="white"/>
</g>
</svg>
