<svg width="38" height="39" viewBox="0 0 38 39" fill="none" xmlns="http://www.w3.org/2000/svg">
<path d="M36.5704 17.817H32.9866V16.0251C32.9866 15.0371 32.1827 14.2332 31.1947 14.2332H23.0918L13.8732 0.625L3.51547 15.9152C1.69491 18.6024 0.732666 21.7388 0.732666 24.9845C0.732666 32.2303 6.62737 38.125 13.8732 38.125C15.0253 38.125 16.1638 37.9685 17.2664 37.6746C17.6582 37.9554 18.1343 38.125 18.6515 38.125H34.1812C35.4988 38.125 36.5704 37.0535 36.5704 35.7358V21.4007C37.2292 21.4007 37.765 20.865 37.765 20.2061V19.0115C37.765 18.3527 37.2292 17.817 36.5704 17.817ZM31.792 16.0251V17.817H21.0407V16.0251C21.0407 15.696 21.3089 15.4278 21.638 15.4278H31.1947C31.5238 15.4278 31.792 15.696 31.792 16.0251ZM1.92726 24.9845C1.92726 21.9783 2.81842 19.0737 4.50459 16.5847L13.8732 2.75496L21.6488 14.2332H21.638C20.6501 14.2332 19.8461 15.0371 19.8461 16.0251V17.817H16.2623C15.6035 17.817 15.0678 18.3527 15.0678 19.0115V20.2061C15.0678 20.865 15.6035 21.4007 16.2623 21.4007V35.7358C16.2623 36.0602 16.3286 36.369 16.4463 36.6515C15.6053 36.836 14.7428 36.9304 13.8732 36.9304C7.28619 36.9304 1.92726 31.5721 1.92726 24.9845ZM31.792 33.3466V21.4007H32.9866V33.3466H31.792ZM30.5974 33.3466H29.4028V21.4007H30.5974V33.3466ZM28.2083 33.3466H27.0137V21.4007H28.2083V33.3466ZM25.8191 33.3466H24.6245V21.4007H25.8191V33.3466ZM23.4299 33.3466H22.2353V21.4007H23.4299V33.3466ZM21.0407 33.3466H19.8461V21.4007H21.0407V33.3466ZM18.6515 33.3466H17.4569V21.4007H18.6515V33.3466ZM34.1812 36.9304H18.6515C17.9927 36.9304 17.4569 36.3946 17.4569 35.7358V34.5412H35.3758V35.7358C35.3758 36.3946 34.84 36.9304 34.1812 36.9304ZM35.3758 33.3466H34.1812V21.4007H35.3758V33.3466ZM16.2623 20.2061V19.0115H36.5704L36.571 20.2061H16.2623Z" fill="#333333"/>
</svg>
