<svg width="38" height="39" viewBox="0 0 38 39" fill="none" xmlns="http://www.w3.org/2000/svg">
<path d="M35.6838 28.4475H34.4742H33.2645H32.0548H30.8451V3.64925C30.8451 1.98164 29.4885 0.625 27.821 0.625H3.02278C1.35518 0.625 -0.00146484 1.98164 -0.00146484 3.64925C-0.00146484 5.31685 1.35518 6.67349 3.02265 6.67349V38.125H28.4258V34.4958H30.8451V32.0765H32.0548H33.2645H34.4742H35.6838C36.6842 32.0765 37.4983 31.2624 37.4983 30.2619C37.4983 29.2614 36.6842 28.4475 35.6838 28.4475ZM29.6355 3.64925V28.4476H28.4258V5.46369H27.8209C26.8205 5.46369 26.0064 4.64963 26.0064 3.64912C26.0064 2.64861 26.8205 1.83454 27.8209 1.83454C28.8213 1.83454 29.6355 2.64873 29.6355 3.64925ZM1.20821 3.64925C1.20821 2.64886 2.02227 1.83467 3.02265 1.83467H25.4173C25.0332 2.34151 24.7968 2.96577 24.7968 3.64925C24.7968 4.33273 25.0333 4.95686 25.4173 5.46382H3.02278C2.0224 5.46369 1.20821 4.64963 1.20821 3.64925ZM4.23246 36.9152V6.67337H27.2162V28.4475H10.1828L4.73929 30.2621L10.1828 32.0766H27.2161V36.9153H4.23246V36.9152ZM8.56431 30.2621L9.67592 29.8912V30.6321L8.56431 30.2621ZM29.6355 33.2862H28.4258V32.0765H29.6355V33.2862ZM30.8451 30.8668H10.8856V29.6572H30.8451V30.8668ZM33.2645 30.8668H32.0548V29.6572H33.2645V30.8668ZM35.6838 30.8668H34.4742V29.6572H35.6838C36.0176 29.6572 36.2886 29.9288 36.2886 30.2621C36.2886 30.5953 36.0178 30.8668 35.6838 30.8668Z" fill="#333333"/>
</svg>
