<svg width="525" height="294" viewBox="0 0 525 294" fill="none" xmlns="http://www.w3.org/2000/svg">
<g opacity="0.8">
<path opacity="0.8" d="M119.496 211.724L119.816 210.349L-149.419 147.638L-149.739 149.013L119.496 211.724Z" fill="white"/>
<path opacity="0.8" d="M46.7005 240.452L46.4341 239.786L119.613 210.719L119.853 211.358L46.7005 240.452Z" fill="white"/>
<path opacity="0.8" d="M46.2869 240.757L46.8892 239.509L-200.786 119.923L-201.389 121.17L46.2869 240.757Z" fill="white"/>
<path opacity="0.8" d="M46.2878 240.679L-149.78 148.893L-149.274 147.801L46.7939 239.586L46.2878 240.679Z" fill="white"/>
<path opacity="0.8" d="M47.0643 240.328L46.0253 239.928L115.635 57.2095L116.674 57.6092L47.0643 240.328Z" fill="white"/>
<path opacity="0.8" d="M119.313 211.067L120.299 211.043L116.598 57.4098L115.613 57.4336L119.313 211.067Z" fill="white"/>
<path opacity="0.8" d="M116.332 57.4729L160.28 -91.0081L159.335 -91.2879L115.387 57.1931L116.332 57.4729Z" fill="white"/>
<path opacity="0.8" d="M116.332 57.4729L160.28 -91.0081L159.335 -91.2879L115.387 57.1931L116.332 57.4729Z" fill="white"/>
<path opacity="0.8" d="M116.443 57.9017L115.91 56.9159L282.781 -34.8165L283.314 -33.8573L116.443 57.9017Z" fill="white"/>
<path opacity="0.8" d="M116.622 57.529L115.69 57.2892L153.918 -82.2677L154.824 -82.0279L116.622 57.529Z" fill="white"/>
<path opacity="0.8" d="M115.628 57.7095L116.707 57.2513L34.4108 -136.557L33.3319 -136.098L115.628 57.7095Z" fill="white"/>
<path opacity="0.8" d="M-149.296 148.945L116.421 58.1136L115.965 56.7775L-149.752 147.609L-149.296 148.945Z" fill="white"/>
<path opacity="0.8" d="M115.96 57.9602L-78.2701 -10.7259L-77.8705 -11.8182L116.359 56.8678L115.96 57.9602Z" fill="white"/>
<path opacity="0.8" d="M45.921 240.438L-78.6996 -10.9672L-77.4475 -11.6066L47.1997 239.825L45.921 240.438Z" fill="white"/>
<path opacity="0.8" d="M46.7207 240.633L-123.161 294.878L-123.507 293.866L46.401 239.62L46.7207 240.633Z" fill="white"/>
<path opacity="0.8" d="M-123.109 295.003L-123.562 293.724L119.499 210.411L119.952 211.689L-123.109 295.003Z" fill="white"/>
<path opacity="0.8" d="M247.348 102.527L116.014 57.8465L116.307 56.9673L247.641 101.648L247.348 102.527Z" fill="white"/>
<path opacity="0.8" d="M46.9766 240.729L247.81 102.527L247.085 101.474L46.2518 239.675L46.9766 240.729Z" fill="white"/>
<path opacity="0.8" d="M120.064 211.416L119.398 210.643L247.162 101.699L247.828 102.472L120.064 211.416Z" fill="white"/>
<path opacity="0.8" d="M246.951 102.344L158.907 -91.005L159.999 -91.4845L248.043 101.838L246.951 102.344Z" fill="white"/>
<path opacity="0.8" d="M246.951 102.344L158.907 -91.005L159.999 -91.4845L248.043 101.838L246.951 102.344Z" fill="white"/>
<path opacity="0.8" d="M247.936 102.22L247.057 101.98L282.621 -34.4592L283.5 -34.2194L247.936 102.22Z" fill="white"/>
<path opacity="0.8" d="M247.01 102.342L248.032 101.826L154.905 -82.3995L153.883 -81.8826L247.01 102.342Z" fill="white"/>
<path opacity="0.8" d="M248.116 102.292L354.601 -164.648L353.264 -165.181L246.78 101.759L248.116 102.292Z" fill="white"/>
<path opacity="0.8" d="M123.637 209.8C123.879 210.569 123.888 211.392 123.662 212.166C123.436 212.94 122.985 213.629 122.368 214.147C121.75 214.665 120.993 214.988 120.192 215.075C119.391 215.163 118.581 215.011 117.867 214.638C117.152 214.266 116.563 213.69 116.176 212.983C115.788 212.276 115.619 211.471 115.689 210.668C115.759 209.865 116.066 209.101 116.57 208.472C117.075 207.843 117.754 207.378 118.523 207.135C119.554 206.817 120.67 206.918 121.627 207.417C122.585 207.916 123.307 208.772 123.637 209.8Z" fill="white"/>
<path opacity="0.8" d="M123.637 209.8C123.879 210.569 123.888 211.392 123.662 212.166C123.436 212.94 122.985 213.629 122.368 214.147C121.75 214.665 120.993 214.988 120.192 215.075C119.391 215.163 118.581 215.011 117.867 214.638C117.152 214.266 116.563 213.69 116.176 212.983C115.788 212.276 115.619 211.471 115.689 210.668C115.759 209.865 116.066 209.101 116.57 208.472C117.075 207.843 117.754 207.378 118.523 207.135C119.554 206.817 120.67 206.918 121.627 207.417C122.585 207.916 123.307 208.772 123.637 209.8Z" fill="white"/>
<path opacity="0.8" d="M50.4177 238.858C50.6595 239.627 50.668 240.45 50.442 241.224C50.216 241.998 49.7658 242.687 49.1481 243.205C48.5305 243.723 47.7732 244.046 46.972 244.134C46.1708 244.221 45.3616 244.069 44.6468 243.697C43.932 243.324 43.3436 242.748 42.956 242.042C42.5684 241.335 42.399 240.529 42.4692 239.726C42.5395 238.923 42.8461 238.159 43.3505 237.53C43.8549 236.902 44.5343 236.436 45.3029 236.194C45.8136 236.033 46.3512 235.974 46.8847 236.02C47.4183 236.067 47.9374 236.218 48.4124 236.466C48.8874 236.713 49.3091 237.052 49.6531 237.462C49.9972 237.873 50.257 238.347 50.4177 238.858Z" fill="white"/>
<path opacity="0.8" d="M50.4177 238.858C50.6595 239.627 50.668 240.45 50.442 241.224C50.216 241.998 49.7658 242.687 49.1481 243.205C48.5305 243.723 47.7732 244.046 46.972 244.134C46.1708 244.221 45.3616 244.069 44.6468 243.697C43.932 243.324 43.3436 242.748 42.956 242.042C42.5684 241.335 42.399 240.529 42.4692 239.726C42.5395 238.923 42.8461 238.159 43.3505 237.53C43.8549 236.902 44.5343 236.436 45.3029 236.194C45.8136 236.033 46.3512 235.974 46.8847 236.02C47.4183 236.067 47.9374 236.218 48.4124 236.466C48.8874 236.713 49.3091 237.052 49.6531 237.462C49.9972 237.873 50.257 238.347 50.4177 238.858Z" fill="white"/>
<path opacity="0.8" d="M50.4177 238.858C50.6595 239.627 50.668 240.45 50.442 241.224C50.216 241.998 49.7658 242.687 49.1481 243.205C48.5305 243.723 47.7732 244.046 46.972 244.134C46.1708 244.221 45.3616 244.069 44.6468 243.697C43.932 243.324 43.3436 242.748 42.956 242.042C42.5684 241.335 42.399 240.529 42.4692 239.726C42.5395 238.923 42.8461 238.159 43.3505 237.53C43.8549 236.902 44.5343 236.436 45.3029 236.194C45.8136 236.033 46.3512 235.974 46.8847 236.02C47.4183 236.067 47.9374 236.218 48.4124 236.466C48.8874 236.713 49.3091 237.052 49.6531 237.462C49.9972 237.873 50.257 238.347 50.4177 238.858Z" fill="white"/>
<path opacity="0.8" d="M50.4177 238.858C50.6595 239.627 50.668 240.45 50.442 241.224C50.216 241.998 49.7658 242.687 49.1481 243.205C48.5305 243.723 47.7732 244.046 46.972 244.134C46.1708 244.221 45.3616 244.069 44.6468 243.697C43.932 243.324 43.3436 242.748 42.956 242.042C42.5684 241.335 42.399 240.529 42.4692 239.726C42.5395 238.923 42.8461 238.159 43.3505 237.53C43.8549 236.902 44.5343 236.436 45.3029 236.194C45.8136 236.033 46.3512 235.974 46.8847 236.02C47.4183 236.067 47.9374 236.218 48.4124 236.466C48.8874 236.713 49.3091 237.052 49.6531 237.462C49.9972 237.873 50.257 238.347 50.4177 238.858Z" fill="white"/>
<path opacity="0.8" d="M120.038 56.1761C120.28 56.945 120.288 57.7684 120.062 58.5421C119.836 59.3159 119.386 60.0052 118.768 60.5231C118.151 61.0409 117.393 61.364 116.592 61.4515C115.791 61.539 114.982 61.387 114.267 61.0146C113.552 60.6423 112.964 60.0663 112.576 59.3596C112.189 58.6528 112.019 57.8471 112.089 57.044C112.16 56.241 112.466 55.4769 112.971 54.8482C113.475 54.2195 114.154 53.7544 114.923 53.5118C115.434 53.3469 115.972 53.2851 116.507 53.3301C117.041 53.3751 117.562 53.5259 118.038 53.7738C118.514 54.0217 118.936 54.3618 119.279 54.7742C119.622 55.1866 119.88 55.6631 120.038 56.1761Z" fill="white"/>
<path opacity="0.8" d="M123.637 209.8C123.879 210.569 123.888 211.392 123.662 212.166C123.436 212.94 122.985 213.629 122.368 214.147C121.75 214.665 120.993 214.988 120.192 215.075C119.391 215.163 118.581 215.011 117.867 214.638C117.152 214.266 116.563 213.69 116.176 212.983C115.788 212.276 115.619 211.471 115.689 210.668C115.759 209.865 116.066 209.101 116.57 208.472C117.075 207.843 117.754 207.378 118.523 207.135C119.554 206.817 120.67 206.918 121.627 207.417C122.585 207.916 123.307 208.772 123.637 209.8Z" fill="white"/>
<path opacity="0.8" d="M120.038 56.1761C120.28 56.945 120.288 57.7684 120.062 58.5421C119.836 59.3159 119.386 60.0052 118.768 60.5231C118.151 61.0409 117.393 61.364 116.592 61.4515C115.791 61.539 114.982 61.387 114.267 61.0146C113.552 60.6423 112.964 60.0663 112.576 59.3596C112.189 58.6528 112.019 57.8471 112.089 57.044C112.16 56.241 112.466 55.4769 112.971 54.8482C113.475 54.2195 114.154 53.7544 114.923 53.5118C115.434 53.3469 115.972 53.2851 116.507 53.3301C117.041 53.3751 117.562 53.5259 118.038 53.7738C118.514 54.0217 118.936 54.3618 119.279 54.7742C119.622 55.1866 119.88 55.6631 120.038 56.1761Z" fill="white"/>
<path opacity="0.8" d="M120.038 56.1761C120.28 56.945 120.288 57.7684 120.062 58.5421C119.836 59.3159 119.386 60.0052 118.768 60.5231C118.151 61.0409 117.393 61.364 116.592 61.4515C115.791 61.539 114.982 61.387 114.267 61.0146C113.552 60.6423 112.964 60.0663 112.576 59.3596C112.189 58.6528 112.019 57.8471 112.089 57.044C112.16 56.241 112.466 55.4769 112.971 54.8482C113.475 54.2195 114.154 53.7544 114.923 53.5118C115.434 53.3469 115.972 53.2851 116.507 53.3301C117.041 53.3751 117.562 53.5259 118.038 53.7738C118.514 54.0217 118.936 54.3618 119.279 54.7742C119.622 55.1866 119.88 55.6631 120.038 56.1761Z" fill="white"/>
<path opacity="0.8" d="M120.038 56.1761C120.28 56.945 120.288 57.7684 120.062 58.5421C119.836 59.3159 119.386 60.0052 118.768 60.5231C118.151 61.0409 117.393 61.364 116.592 61.4515C115.791 61.539 114.982 61.387 114.267 61.0146C113.552 60.6423 112.964 60.0663 112.576 59.3596C112.189 58.6528 112.019 57.8471 112.089 57.044C112.16 56.241 112.466 55.4769 112.971 54.8482C113.475 54.2195 114.154 53.7544 114.923 53.5118C115.434 53.3469 115.972 53.2851 116.507 53.3301C117.041 53.3751 117.562 53.5259 118.038 53.7738C118.514 54.0217 118.936 54.3618 119.279 54.7742C119.622 55.1866 119.88 55.6631 120.038 56.1761Z" fill="white"/>
<path opacity="0.8" d="M120.038 56.1761C120.28 56.945 120.288 57.7684 120.062 58.5421C119.836 59.3159 119.386 60.0052 118.768 60.5231C118.151 61.0409 117.393 61.364 116.592 61.4515C115.791 61.539 114.982 61.387 114.267 61.0146C113.552 60.6423 112.964 60.0663 112.576 59.3596C112.189 58.6528 112.019 57.8471 112.089 57.044C112.16 56.241 112.466 55.4769 112.971 54.8482C113.475 54.2195 114.154 53.7544 114.923 53.5118C115.434 53.3469 115.972 53.2851 116.507 53.3301C117.041 53.3751 117.562 53.5259 118.038 53.7738C118.514 54.0217 118.936 54.3618 119.279 54.7742C119.622 55.1866 119.88 55.6631 120.038 56.1761Z" fill="white"/>
<path opacity="0.8" d="M120.038 56.1761C120.28 56.945 120.288 57.7684 120.062 58.5421C119.836 59.3159 119.386 60.0052 118.768 60.5231C118.151 61.0409 117.393 61.364 116.592 61.4515C115.791 61.539 114.982 61.387 114.267 61.0146C113.552 60.6423 112.964 60.0663 112.576 59.3596C112.189 58.6528 112.019 57.8471 112.089 57.044C112.16 56.241 112.466 55.4769 112.971 54.8482C113.475 54.2195 114.154 53.7544 114.923 53.5118C115.434 53.3469 115.972 53.2851 116.507 53.3301C117.041 53.3751 117.562 53.5259 118.038 53.7738C118.514 54.0217 118.936 54.3618 119.279 54.7742C119.622 55.1866 119.88 55.6631 120.038 56.1761Z" fill="white"/>
<path opacity="0.8" d="M120.038 56.1761C120.28 56.945 120.288 57.7684 120.062 58.5421C119.836 59.3159 119.386 60.0052 118.768 60.5231C118.151 61.0409 117.393 61.364 116.592 61.4515C115.791 61.539 114.982 61.387 114.267 61.0146C113.552 60.6423 112.964 60.0663 112.576 59.3596C112.189 58.6528 112.019 57.8471 112.089 57.044C112.16 56.241 112.466 55.4769 112.971 54.8482C113.475 54.2195 114.154 53.7544 114.923 53.5118C115.434 53.3469 115.972 53.2851 116.507 53.3301C117.041 53.3751 117.562 53.5259 118.038 53.7738C118.514 54.0217 118.936 54.3618 119.279 54.7742C119.622 55.1866 119.88 55.6631 120.038 56.1761Z" fill="white"/>
<path opacity="0.8" d="M120.038 56.1761C120.28 56.945 120.288 57.7684 120.062 58.5421C119.836 59.3159 119.386 60.0052 118.768 60.5231C118.151 61.0409 117.393 61.364 116.592 61.4515C115.791 61.539 114.982 61.387 114.267 61.0146C113.552 60.6423 112.964 60.0663 112.576 59.3596C112.189 58.6528 112.019 57.8471 112.089 57.044C112.16 56.241 112.466 55.4769 112.971 54.8482C113.475 54.2195 114.154 53.7544 114.923 53.5118C115.434 53.3469 115.972 53.2851 116.507 53.3301C117.041 53.3751 117.562 53.5259 118.038 53.7738C118.514 54.0217 118.936 54.3618 119.279 54.7742C119.622 55.1866 119.88 55.6631 120.038 56.1761Z" fill="white"/>
<path opacity="0.8" d="M120.038 56.1761C120.28 56.945 120.288 57.7684 120.062 58.5421C119.836 59.3159 119.386 60.0052 118.768 60.5231C118.151 61.0409 117.393 61.364 116.592 61.4515C115.791 61.539 114.982 61.387 114.267 61.0146C113.552 60.6423 112.964 60.0663 112.576 59.3596C112.189 58.6528 112.019 57.8471 112.089 57.044C112.16 56.241 112.466 55.4769 112.971 54.8482C113.475 54.2195 114.154 53.7544 114.923 53.5118C115.434 53.3469 115.972 53.2851 116.507 53.3301C117.041 53.3751 117.562 53.5259 118.038 53.7738C118.514 54.0217 118.936 54.3618 119.279 54.7742C119.622 55.1866 119.88 55.6631 120.038 56.1761Z" fill="white"/>
<path opacity="0.8" d="M50.4177 238.858C50.6595 239.627 50.668 240.45 50.442 241.224C50.216 241.998 49.7658 242.687 49.1481 243.205C48.5305 243.723 47.7732 244.046 46.972 244.134C46.1708 244.221 45.3616 244.069 44.6468 243.697C43.932 243.324 43.3436 242.748 42.956 242.042C42.5684 241.335 42.399 240.529 42.4692 239.726C42.5395 238.923 42.8461 238.159 43.3505 237.53C43.8549 236.902 44.5343 236.436 45.3029 236.194C45.8136 236.033 46.3512 235.974 46.8847 236.02C47.4183 236.067 47.9374 236.218 48.4124 236.466C48.8874 236.713 49.3091 237.052 49.6531 237.462C49.9972 237.873 50.257 238.347 50.4177 238.858Z" fill="white"/>
<path opacity="0.8" d="M50.4177 238.858C50.6595 239.627 50.668 240.45 50.442 241.224C50.216 241.998 49.7658 242.687 49.1481 243.205C48.5305 243.723 47.7732 244.046 46.972 244.134C46.1708 244.221 45.3616 244.069 44.6468 243.697C43.932 243.324 43.3436 242.748 42.956 242.042C42.5684 241.335 42.399 240.529 42.4692 239.726C42.5395 238.923 42.8461 238.159 43.3505 237.53C43.8549 236.902 44.5343 236.436 45.3029 236.194C45.8136 236.033 46.3512 235.974 46.8847 236.02C47.4183 236.067 47.9374 236.218 48.4124 236.466C48.8874 236.713 49.3091 237.052 49.6531 237.462C49.9972 237.873 50.257 238.347 50.4177 238.858Z" fill="white"/>
<path opacity="0.8" d="M123.637 209.8C123.879 210.569 123.888 211.392 123.662 212.166C123.436 212.94 122.985 213.629 122.368 214.147C121.75 214.665 120.993 214.988 120.192 215.075C119.391 215.163 118.581 215.011 117.867 214.638C117.152 214.266 116.563 213.69 116.176 212.983C115.788 212.276 115.619 211.471 115.689 210.668C115.759 209.865 116.066 209.101 116.57 208.472C117.075 207.843 117.754 207.378 118.523 207.135C119.554 206.817 120.67 206.918 121.627 207.417C122.585 207.916 123.307 208.772 123.637 209.8Z" fill="white"/>
<path opacity="0.8" d="M120.038 56.1761C120.28 56.945 120.288 57.7684 120.062 58.5421C119.836 59.3159 119.386 60.0052 118.768 60.5231C118.151 61.0409 117.393 61.364 116.592 61.4515C115.791 61.539 114.982 61.387 114.267 61.0146C113.552 60.6423 112.964 60.0663 112.576 59.3596C112.189 58.6528 112.019 57.8471 112.089 57.044C112.16 56.241 112.466 55.4769 112.971 54.8482C113.475 54.2195 114.154 53.7544 114.923 53.5118C115.434 53.3469 115.972 53.2851 116.507 53.3301C117.041 53.3751 117.562 53.5259 118.038 53.7738C118.514 54.0217 118.936 54.3618 119.279 54.7742C119.622 55.1866 119.88 55.6631 120.038 56.1761Z" fill="white"/>
<path opacity="0.8" d="M251.367 100.86C251.609 101.629 251.617 102.452 251.391 103.226C251.165 104 250.715 104.689 250.097 105.207C249.48 105.725 248.722 106.048 247.921 106.135C247.12 106.223 246.311 106.071 245.596 105.698C244.881 105.326 244.293 104.75 243.905 104.043C243.518 103.337 243.348 102.531 243.418 101.728C243.489 100.925 243.795 100.161 244.3 99.532C244.804 98.9033 245.484 98.4382 246.252 98.1956C246.763 98.0307 247.301 97.969 247.836 98.014C248.37 98.059 248.891 98.2098 249.367 98.4577C249.843 98.7056 250.265 99.0456 250.608 99.458C250.951 99.8704 251.209 100.347 251.367 100.86Z" fill="white"/>
<path opacity="0.8" d="M50.4177 238.858C50.6595 239.627 50.668 240.45 50.442 241.224C50.216 241.998 49.7658 242.687 49.1481 243.205C48.5305 243.723 47.7732 244.046 46.972 244.134C46.1708 244.221 45.3616 244.069 44.6468 243.697C43.932 243.324 43.3436 242.748 42.956 242.042C42.5684 241.335 42.399 240.529 42.4692 239.726C42.5395 238.923 42.8461 238.159 43.3505 237.53C43.8549 236.902 44.5343 236.436 45.3029 236.194C45.8136 236.033 46.3512 235.974 46.8847 236.02C47.4183 236.067 47.9374 236.218 48.4124 236.466C48.8874 236.713 49.3091 237.052 49.6531 237.462C49.9972 237.873 50.257 238.347 50.4177 238.858Z" fill="white"/>
<path opacity="0.8" d="M251.367 100.86C251.609 101.629 251.617 102.452 251.391 103.226C251.165 104 250.715 104.689 250.097 105.207C249.48 105.725 248.722 106.048 247.921 106.135C247.12 106.223 246.311 106.071 245.596 105.698C244.881 105.326 244.293 104.75 243.905 104.043C243.518 103.337 243.348 102.531 243.418 101.728C243.489 100.925 243.795 100.161 244.3 99.532C244.804 98.9033 245.484 98.4382 246.252 98.1956C246.763 98.0307 247.301 97.969 247.836 98.014C248.37 98.059 248.891 98.2098 249.367 98.4577C249.843 98.7056 250.265 99.0456 250.608 99.458C250.951 99.8704 251.209 100.347 251.367 100.86Z" fill="white"/>
<path opacity="0.8" d="M123.637 209.8C123.879 210.569 123.888 211.392 123.662 212.166C123.436 212.94 122.985 213.629 122.368 214.147C121.75 214.665 120.993 214.988 120.192 215.075C119.391 215.163 118.581 215.011 117.867 214.638C117.152 214.266 116.563 213.69 116.176 212.983C115.788 212.276 115.619 211.471 115.689 210.668C115.759 209.865 116.066 209.101 116.57 208.472C117.075 207.843 117.754 207.378 118.523 207.135C119.554 206.817 120.67 206.918 121.627 207.417C122.585 207.916 123.307 208.772 123.637 209.8Z" fill="white"/>
<path opacity="0.8" d="M251.367 100.86C251.609 101.629 251.617 102.452 251.391 103.226C251.165 104 250.715 104.689 250.097 105.207C249.48 105.725 248.722 106.048 247.921 106.135C247.12 106.223 246.311 106.071 245.596 105.698C244.881 105.326 244.293 104.75 243.905 104.043C243.518 103.337 243.348 102.531 243.418 101.728C243.489 100.925 243.795 100.161 244.3 99.532C244.804 98.9033 245.484 98.4382 246.252 98.1956C246.763 98.0307 247.301 97.969 247.836 98.014C248.37 98.059 248.891 98.2098 249.367 98.4577C249.843 98.7056 250.265 99.0456 250.608 99.458C250.951 99.8704 251.209 100.347 251.367 100.86Z" fill="white"/>
<path opacity="0.8" d="M251.367 100.86C251.609 101.629 251.617 102.452 251.391 103.226C251.165 104 250.715 104.689 250.097 105.207C249.48 105.725 248.722 106.048 247.921 106.135C247.12 106.223 246.311 106.071 245.596 105.698C244.881 105.326 244.293 104.75 243.905 104.043C243.518 103.337 243.348 102.531 243.418 101.728C243.489 100.925 243.795 100.161 244.3 99.532C244.804 98.9033 245.484 98.4382 246.252 98.1956C246.763 98.0307 247.301 97.969 247.836 98.014C248.37 98.059 248.891 98.2098 249.367 98.4577C249.843 98.7056 250.265 99.0456 250.608 99.458C250.951 99.8704 251.209 100.347 251.367 100.86Z" fill="white"/>
<path opacity="0.8" d="M251.367 100.86C251.609 101.629 251.617 102.452 251.391 103.226C251.165 104 250.715 104.689 250.097 105.207C249.48 105.725 248.722 106.048 247.921 106.135C247.12 106.223 246.311 106.071 245.596 105.698C244.881 105.326 244.293 104.75 243.905 104.043C243.518 103.337 243.348 102.531 243.418 101.728C243.489 100.925 243.795 100.161 244.3 99.532C244.804 98.9033 245.484 98.4382 246.252 98.1956C246.763 98.0307 247.301 97.969 247.836 98.014C248.37 98.059 248.891 98.2098 249.367 98.4577C249.843 98.7056 250.265 99.0456 250.608 99.458C250.951 99.8704 251.209 100.347 251.367 100.86Z" fill="white"/>
<path opacity="0.8" d="M251.367 100.86C251.609 101.629 251.617 102.452 251.391 103.226C251.165 104 250.715 104.689 250.097 105.207C249.48 105.725 248.722 106.048 247.921 106.135C247.12 106.223 246.311 106.071 245.596 105.698C244.881 105.326 244.293 104.75 243.905 104.043C243.518 103.337 243.348 102.531 243.418 101.728C243.489 100.925 243.795 100.161 244.3 99.532C244.804 98.9033 245.484 98.4382 246.252 98.1956C246.763 98.0307 247.301 97.969 247.836 98.014C248.37 98.059 248.891 98.2098 249.367 98.4577C249.843 98.7056 250.265 99.0456 250.608 99.458C250.951 99.8704 251.209 100.347 251.367 100.86Z" fill="white"/>
<path opacity="0.8" d="M251.367 100.86C251.609 101.629 251.617 102.452 251.391 103.226C251.165 104 250.715 104.689 250.097 105.207C249.48 105.725 248.722 106.048 247.921 106.135C247.12 106.223 246.311 106.071 245.596 105.698C244.881 105.326 244.293 104.75 243.905 104.043C243.518 103.337 243.348 102.531 243.418 101.728C243.489 100.925 243.795 100.161 244.3 99.532C244.804 98.9033 245.484 98.4382 246.252 98.1956C246.763 98.0307 247.301 97.969 247.836 98.014C248.37 98.059 248.891 98.2098 249.367 98.4577C249.843 98.7056 250.265 99.0456 250.608 99.458C250.951 99.8704 251.209 100.347 251.367 100.86Z" fill="white"/>
<path opacity="0.8" d="M251.367 100.86C251.609 101.629 251.617 102.452 251.391 103.226C251.165 104 250.715 104.689 250.097 105.207C249.48 105.725 248.722 106.048 247.921 106.135C247.12 106.223 246.311 106.071 245.596 105.698C244.881 105.326 244.293 104.75 243.905 104.043C243.518 103.337 243.348 102.531 243.418 101.728C243.489 100.925 243.795 100.161 244.3 99.532C244.804 98.9033 245.484 98.4382 246.252 98.1956C246.763 98.0307 247.301 97.969 247.836 98.014C248.37 98.059 248.891 98.2098 249.367 98.4577C249.843 98.7056 250.265 99.0456 250.608 99.458C250.951 99.8704 251.209 100.347 251.367 100.86Z" fill="white"/>
</g>
</svg>
