<svg width="9" height="10" viewBox="0 0 9 10" fill="none" xmlns="http://www.w3.org/2000/svg">
<path opacity="0.8" d="M0.815478 6.14121C0.57366 5.37228 0.565192 4.54891 0.79117 3.77518C1.01715 3.00144 1.46743 2.31209 2.08506 1.79424C2.7027 1.27639 3.45996 0.953307 4.26116 0.86582C5.06236 0.778332 5.8715 0.930381 6.58631 1.30273C7.30113 1.67508 7.88954 2.25101 8.27714 2.95774C8.66474 3.66447 8.83413 4.47028 8.76391 5.27328C8.6937 6.07628 8.38701 6.84044 7.88264 7.46916C7.37827 8.09788 6.69887 8.56292 5.93028 8.80552C5.41965 8.97042 4.88134 9.03218 4.34664 8.98719C3.81194 8.9422 3.29151 8.79137 2.8156 8.54347C2.3397 8.29557 1.9178 7.95555 1.57443 7.54315C1.23107 7.13075 0.973089 6.6542 0.815478 6.14121Z" fill="white"/>
</svg>
