<svg width="35" height="35" viewBox="0 0 35 35" fill="none" xmlns="http://www.w3.org/2000/svg">
<circle cx="17.2627" cy="17.3907" r="17.2632" fill="#3BAEAB"/>
<g clip-path="url(#clip0_0_1311)">
<path d="M12.9635 22.4326C12.9635 21.5689 13.6636 20.8687 14.5273 20.8687C15.391 20.8687 16.0912 21.5689 16.0911 22.4326H12.9635ZM12.9635 22.4326C12.9635 23.2963 13.6636 23.9964 14.5273 23.9964M12.9635 22.4326L14.5273 23.9964M14.5273 23.9964C15.391 23.9964 16.0911 23.2962 16.0911 22.4326L14.5273 23.9964ZM15.1919 22.4326V22.4326C15.192 22.7997 14.8944 23.0972 14.5273 23.0972C14.1602 23.0972 13.8627 22.7997 13.8627 22.4326C13.8627 22.0655 14.1602 21.768 14.5273 21.768C14.8944 21.768 15.1919 22.0655 15.1919 22.4326Z" fill="white" stroke="white" stroke-width="0.2625"/>
<path d="M21.2425 22.4326V22.4326C21.2425 22.7997 20.9449 23.0972 20.5778 23.0972C20.2108 23.0972 19.9132 22.7997 19.9132 22.4326C19.9132 22.0655 20.2108 21.768 20.5778 21.768C20.9449 21.768 21.2425 22.0655 21.2425 22.4326ZM20.5778 20.8687C19.7141 20.8687 19.014 21.5689 19.014 22.4326C19.014 23.2963 19.7142 23.9964 20.5778 23.9964C21.4415 23.9964 22.1417 23.2962 22.1417 22.4326C22.1417 21.5689 21.4415 20.8687 20.5778 20.8687Z" fill="white" stroke="white" stroke-width="0.2625"/>
<path d="M23.908 12.5604L23.9081 12.5603L23.9051 12.5571C23.8169 12.4608 23.6963 12.4005 23.5664 12.3877L23.5665 12.3873L23.5554 12.3871L13.2867 12.2451L13.0294 11.4588L13.0294 11.4588L13.0287 11.4568C12.8088 10.8191 12.2116 10.3886 11.5371 10.3815L11.5371 10.3814H11.5357H10.4692C10.2209 10.3814 10.0196 10.5827 10.0196 10.831C10.0196 11.0794 10.2209 11.2807 10.4692 11.2807H11.5342C11.8246 11.2876 12.0802 11.4742 12.1755 11.7487L14.181 17.7967L14.0418 18.1168L14.0417 18.1167L14.0398 18.1216C13.847 18.6188 13.9049 19.1783 14.1954 19.6254L14.1956 19.6259C14.484 20.0661 14.9692 20.3379 15.4953 20.3537L15.4953 20.3537H15.4993H21.6913C21.9396 20.3537 22.1409 20.1524 22.1409 19.9041C22.1409 19.6558 21.9396 19.4545 21.6913 19.4545H15.5009C15.2728 19.4483 15.0629 19.3281 14.9421 19.1343L14.942 19.1342C14.8214 18.941 14.796 18.7031 14.8729 18.4888L14.9676 18.2758L21.5935 17.5833L21.5942 17.5832C22.3854 17.4961 23.0363 16.9206 23.2197 16.1459L23.982 12.9538C24.029 12.8191 24.0011 12.6692 23.908 12.5604ZM22.3437 15.9415L22.3436 15.9415L22.3431 15.9439C22.2523 16.3516 21.9062 16.6523 21.4899 16.6853L21.4899 16.6852L21.4867 16.6855L14.97 17.3591L13.5805 13.1457L22.9893 13.2839L22.3437 15.9415Z" fill="white" stroke="white" stroke-width="0.2625"/>
</g>
<defs>
<clipPath id="clip0_0_1311">
<rect width="17.25" height="17.25" fill="white" transform="translate(8.74951 8.87756)"/>
</clipPath>
</defs>
</svg>
