<svg width="35" height="35" viewBox="0 0 35 35" fill="none" xmlns="http://www.w3.org/2000/svg">
<circle cx="17.7363" cy="17.3907" r="17.2632" fill="#3BAEAB"/>
<g clip-path="url(#clip0_0_1312)">
<path d="M22.9339 19.3214C22.1261 18.5136 21.1646 17.9156 20.1155 17.5536C21.2391 16.7797 21.9773 15.4846 21.9773 14.0201C21.9773 11.6558 20.0538 9.7323 17.6895 9.7323C15.3252 9.7323 13.4016 11.6558 13.4016 14.0201C13.4016 15.4846 14.1398 16.7797 15.2634 17.5536C14.2144 17.9156 13.2529 18.5136 12.445 19.3214C11.0442 20.7222 10.2727 22.5847 10.2727 24.5658H11.4316C11.4316 21.1152 14.2388 18.3079 17.6895 18.3079C21.1401 18.3079 23.9474 21.1152 23.9474 24.5658H25.1062C25.1062 22.5847 24.3347 20.7222 22.9339 19.3214ZM17.6895 17.1491C15.9642 17.1491 14.5605 15.7454 14.5605 14.0201C14.5605 12.2948 15.9642 10.8912 17.6895 10.8912C19.4148 10.8912 20.8184 12.2948 20.8184 14.0201C20.8184 15.7454 19.4148 17.1491 17.6895 17.1491Z" fill="white"/>
</g>
<defs>
<clipPath id="clip0_0_1312">
<rect width="19.4688" height="19.4688" fill="white" transform="translate(8.12939 7.78381)"/>
</clipPath>
</defs>
</svg>
