<svg width="20" height="19" viewBox="0 0 20 19" fill="none" xmlns="http://www.w3.org/2000/svg">
<path d="M14.5049 0.355225H5.49532C2.96601 0.355225 0.908447 2.41958 0.908447 4.95724V13.9965C0.908447 16.5344 2.96601 18.5985 5.49532 18.5985H14.5049C17.0344 18.5985 19.0917 16.5344 19.0917 13.9965V4.95724C19.0917 2.41958 17.0344 0.355225 14.5049 0.355225ZM17.1131 13.9966C17.1131 15.4395 15.943 16.6134 14.5049 16.6134H5.49532C4.05744 16.6134 2.88735 15.4395 2.88735 13.9966V4.95724C2.88735 3.51461 4.05744 2.34066 5.49532 2.34066H14.5049C15.943 2.34066 17.1131 3.51453 17.1131 4.95724V13.9966Z" fill="#333333"/>
<path d="M14.8332 5.75053C14.2219 5.75053 13.7249 5.25181 13.7249 4.63885C13.7249 4.02581 14.2219 3.5271 14.8332 3.5271C15.4442 3.5271 15.9413 4.02581 15.9413 4.63885C15.9413 5.25181 15.4442 5.75053 14.8332 5.75053Z" fill="#333333"/>
<path d="M9.99958 4.7771C7.41759 4.7771 5.31665 6.88497 5.31665 9.47548C5.31665 12.0663 7.41759 14.1742 9.99958 14.1742C12.5819 14.1742 14.6828 12.0663 14.6828 9.47548C14.6828 6.88504 12.5819 4.7771 9.99958 4.7771ZM9.99958 12.1892C8.50901 12.1892 7.2952 10.9716 7.2952 9.47556C7.2952 7.98007 8.50901 6.76283 9.99958 6.76283C11.4907 6.76283 12.7037 7.98007 12.7037 9.47556C12.7037 10.9715 11.4907 12.1892 9.99958 12.1892Z" fill="#333333"/>
</svg>
